<svg width="745" height="544" viewBox="0 0 745 544" fill="none" xmlns="http://www.w3.org/2000/svg">
<g id="Illustration">
<g id="Shape">
<g id="Group 59">
<path id="Path" opacity="0.0845424" d="M673.653 164.269C683.03 151.75 700.786 149.2 713.311 158.572C725.712 167.85 728.337 185.335 719.29 197.83L719.012 198.207L644.712 297.393C635.249 310.026 617.673 313.229 604.373 304.822L603.971 304.564L557.197 273.967L510.038 342.613C501.27 355.376 483.897 358.713 471.034 350.19L470.646 349.928C457.876 341.165 454.536 323.802 463.064 310.947L463.326 310.559L525.125 220.605C534.332 207.205 552.473 203.512 566.174 212.164L566.587 212.43L614.231 243.594L673.653 164.269Z" fill="#7367F0"/>
<path id="Path_2" opacity="0.0845424" d="M430.45 3.31426C432.828 -0.140142 437.564 -1.0187 441.028 1.35196C444.447 3.69141 445.35 8.32089 443.089 11.7621L442.996 11.8991L424.48 38.799C421.765 42.5898 416.513 43.503 412.677 40.8806L412.54 40.7855L401.906 33.2146L390.38 51.4739C388.171 54.9736 383.567 56.0568 380.028 53.9385L379.889 53.8532C376.379 51.6506 375.292 47.0593 377.417 43.531L377.502 43.3922L392.787 19.178C395.305 15.189 400.59 13.9906 404.59 16.5012L404.8 16.6368L405.005 16.7784L415.863 24.5083L430.45 3.31426Z" fill="#7367F0"/>
<path id="+" opacity="0.070266" fillRule="evenodd" clipRule="evenodd" d="M632.735 129.328C634.116 129.328 635.235 128.209 635.235 126.828V108.851H653.224C654.605 108.851 655.724 107.732 655.724 106.351V97.6961C655.724 96.3154 654.605 95.1961 653.224 95.1961H635.235V77.0864C635.235 75.7057 634.116 74.5864 632.735 74.5864H623.94C622.559 74.5864 621.44 75.7057 621.44 77.0864V95.1961H603.451C602.07 95.1961 600.951 96.3154 600.951 97.6961V106.351C600.951 107.732 602.07 108.851 603.451 108.851H621.44V126.828C621.44 128.209 622.559 129.328 623.94 129.328H632.735Z" fill="#00CFE8"/>
<path id="Oval" opacity="0.0739397" fillRule="evenodd" clipRule="evenodd" d="M91.935 20.02C142.527 20.02 183.539 61.0086 183.539 111.571C183.539 162.133 142.527 203.121 91.935 203.121C41.3436 203.121 0.331055 162.133 0.331055 111.571C0.331055 61.0086 41.3436 20.02 91.935 20.02ZM91.935 65.3234C66.3785 65.3234 45.6609 86.029 45.6609 111.571C45.6609 137.112 66.3785 157.818 91.935 157.818C117.492 157.818 138.209 137.112 138.209 111.571C138.209 86.029 117.492 65.3234 91.935 65.3234Z" fill="#00CFE8"/>
</g>
</g>
<g id="Meeting">
<g id="Group 63">
<path id="Rectangle" fillRule="evenodd" clipRule="evenodd" d="M60.9287 101.02C60.9287 92.1835 68.0922 85.02 76.9287 85.02H547.057C555.894 85.02 563.057 92.1835 563.057 101.02V305.245C563.057 314.081 555.894 321.245 547.057 321.245H76.9287C68.0922 321.245 60.9287 314.081 60.9287 305.245V101.02Z" fill="#E7FCFF"/>
<path id="Rectangle_2" opacity="0.383371" fillRule="evenodd" clipRule="evenodd" d="M68.4795 101.02C68.4795 92.1835 75.6429 85.02 84.4795 85.02H547.057C555.894 85.02 563.057 92.1835 563.057 101.02V305.245C563.057 314.081 555.894 321.245 547.057 321.245H84.4795C75.643 321.245 68.4795 314.081 68.4795 305.245V101.02Z" fill="#00CFE8"/>
<path id="Rectangle_3" fillRule="evenodd" clipRule="evenodd" d="M76.0303 102.579C76.0303 97.0563 80.5074 92.5791 86.0303 92.5791H545.506C551.029 92.5791 555.506 97.0563 555.506 102.579V303.685C555.506 309.208 551.029 313.685 545.506 313.685H86.0303C80.5074 313.685 76.0303 309.208 76.0303 303.685L76.0303 102.579Z" fill="#E7FCFF"/>
<path id="Rectangle_4" fillRule="evenodd" clipRule="evenodd" d="M275.183 299.843C275.183 296.529 277.869 293.843 281.183 293.843H350.354C353.667 293.843 356.354 296.529 356.354 299.843V313.685H275.183V299.843Z" fill="#D4EFFF"/>
<path id="Rectangle_5" d="M282.733 299.843C282.733 296.529 285.42 293.843 288.733 293.843H357.905C361.218 293.843 363.905 296.529 363.905 299.843V321.245H282.733V299.843Z" fill="#91D6FF"/>
</g>
<g id="ElementCard20">
<g id="Rectangle_6" filter="url(#filter0_dd_620_4932)">
<path fillRule="evenodd" clipRule="evenodd" d="M90.188 107.417C90.188 104.441 92.6006 102.028 95.5768 102.028H220.6C223.577 102.028 225.989 104.441 225.989 107.417V148.067C225.989 151.043 223.577 153.456 220.6 153.456H95.5768C92.6006 153.456 90.188 151.043 90.188 148.067V107.417Z" fill="white"/>
</g>
<path id="Rectangle_7" opacity="0.454078" fillRule="evenodd" clipRule="evenodd" d="M130.369 132.579C130.369 131.735 131.053 131.052 131.896 131.052H157.324C158.168 131.052 158.852 131.735 158.852 132.579C158.852 133.423 158.168 134.107 157.324 134.107H131.896C131.053 134.107 130.369 133.423 130.369 132.579Z" fill="#C7C1FF"/>
<path id="Rectangle_8" fillRule="evenodd" clipRule="evenodd" d="M130.369 123.923C130.369 123.079 131.053 122.396 131.896 122.396H147.152C147.995 122.396 148.679 123.079 148.679 123.923C148.679 124.767 147.995 125.451 147.152 125.451H131.896C131.053 125.451 130.369 124.767 130.369 123.923Z" fill="#8478FF"/>
<g id="Group 9">
<path id="Path_3" fillRule="evenodd" clipRule="evenodd" d="M205.145 120.304C207.315 117.449 211.385 116.896 214.236 119.069C214.892 119.568 215.447 120.189 215.871 120.896C216.09 121.261 215.971 121.734 215.607 121.953C215.243 122.171 214.771 122.053 214.552 121.688C214.229 121.148 213.805 120.675 213.305 120.294C211.174 118.671 208.151 119.042 206.472 121.105L206.369 121.236L203.984 124.373C200.259 129.274 193.956 131.434 188.025 129.868L187.771 129.799L185.853 129.257C185.729 129.222 185.605 129.191 185.479 129.163C181.971 128.389 178.5 130.561 177.641 134.031L177.601 134.202L177.205 136C177.065 136.637 176.794 137.237 176.408 137.761C174.883 139.837 171.965 140.282 169.891 138.755C169.549 138.503 169.476 138.021 169.728 137.679C169.979 137.336 170.461 137.263 170.803 137.515C172.192 138.538 174.147 138.24 175.169 136.849C175.395 136.541 175.563 136.195 175.664 135.828L175.703 135.669L176.099 133.871C177.067 129.471 181.415 126.69 185.81 127.659L186.041 127.714L186.27 127.775L188.189 128.317C193.504 129.819 199.189 127.966 202.604 123.642L202.76 123.441L205.145 120.304Z" fill="#8478FF"/>
<path id="Path_4" fillRule="evenodd" clipRule="evenodd" d="M198.214 119.373C199.785 115.877 203.889 114.316 207.382 115.889C208.083 116.204 208.728 116.635 209.288 117.162C210.607 118.404 211.829 120.367 212.974 123.055C213.141 123.446 212.959 123.898 212.568 124.065C212.178 124.232 211.726 124.05 211.559 123.659C210.49 121.15 209.375 119.358 208.234 118.284C207.798 117.874 207.297 117.539 206.751 117.293C204.082 116.092 200.955 117.24 199.686 119.858L199.617 120.004L199.122 121.106C199.007 121.363 198.875 121.611 198.726 121.85C196.899 124.786 193.04 125.683 190.107 123.854C189.757 123.636 189.374 123.478 188.973 123.386C187.021 122.939 185.077 124.122 184.562 126.042L184.529 126.177L183.673 129.919C183.415 131.046 182.868 132.087 182.085 132.937C179.645 135.591 175.547 135.805 172.845 133.454L172.702 133.325L169.215 130.112C168.903 129.824 168.883 129.337 169.17 129.024C169.439 128.732 169.881 128.695 170.192 128.926L170.257 128.979L173.743 132.193C175.817 134.103 179.045 133.97 180.954 131.894C181.509 131.291 181.91 130.563 182.124 129.774L182.174 129.575L183.03 125.833C183.677 123.005 186.491 121.237 189.317 121.885C189.813 121.999 190.29 122.185 190.732 122.436L190.92 122.547C193.132 123.927 196.042 123.25 197.421 121.036C197.495 120.916 197.565 120.792 197.628 120.666L197.719 120.475L198.214 119.373Z" fill="#C7C1FF"/>
</g>
<ellipse id="Oval_2" cx="112.821" cy="128.251" rx="10.4267" ry="10.4383" fill="#8478FF"/>
</g>
<g id="ElementCard3">
<g id="Rectangle_9" filter="url(#filter1_dd_620_4932)">
<path fillRule="evenodd" clipRule="evenodd" d="M90.188 165.612C90.188 162.85 92.4266 160.612 95.188 160.612H254.137C256.899 160.612 259.137 162.85 259.137 165.612V298.291C259.137 301.053 256.899 303.291 254.137 303.291H95.188C92.4266 303.291 90.188 301.053 90.188 298.291V165.612Z" fill="white"/>
</g>
<mask id="mask0_620_4932" style="mask-type:alpha" maskUnits="userSpaceOnUse" x="90" y="160" width="170" height="144">
<path id="Rectangle_10" fillRule="evenodd" clipRule="evenodd" d="M90.188 165.612C90.188 162.85 92.4266 160.612 95.188 160.612H254.137C256.899 160.612 259.137 162.85 259.137 165.612V298.291C259.137 301.053 256.899 303.291 254.137 303.291H95.188C92.4266 303.291 90.188 301.053 90.188 298.291V165.612Z" fill="white"/>
</mask>
<g mask="url(#mask0_620_4932)">
<g id="Path 3" filter="url(#filter2_d_620_4932)">
<path d="M112.84 270.22C112.84 270.22 132.925 264.446 141.781 252.659C150.637 240.873 153.623 229.449 168.855 229.449C184.086 229.449 186.039 246.946 202.505 246.946C218.97 246.946 219.871 224.632 225.343 215.772C230.816 206.912 240.26 206.912 240.26 206.912" stroke="#8EEAF6" strokeWidth="4.004" strokeLinecap="round"/>
</g>
<path id="Path 3_2" opacity="0.414737" fillRule="evenodd" clipRule="evenodd" d="M112.84 269.002C112.84 269.002 132.925 263.252 141.781 251.517C150.637 239.781 153.623 228.406 168.855 228.406C184.086 228.406 186.039 245.828 202.505 245.828C218.97 245.828 219.871 223.61 225.343 214.789C230.816 205.967 240.26 205.967 240.26 205.967V280.368C240.26 282.069 238.881 283.448 237.18 283.448H115.92C114.219 283.448 112.84 282.069 112.84 280.368V269.002Z" fill="#CEF9FF"/>
<rect id="Rectangle_11" x="103.402" y="174.785" width="52.8556" height="5.66939" rx="2.83469" fill="#8EEAF6"/>
<path id="Rectangle_12" fillRule="evenodd" clipRule="evenodd" d="M103.402 191.793C103.402 190.228 104.671 188.959 106.237 188.959H125.107C126.673 188.959 127.942 190.228 127.942 191.793C127.942 193.359 126.673 194.628 125.107 194.628H106.237C104.671 194.628 103.402 193.359 103.402 191.793Z" fill="#8EEAF6" fill-opacity="0.401934"/>
<ellipse id="Oval_3" cx="226.574" cy="178.093" rx="3.30348" ry="3.30714" fill="#8EEAF6" fill-opacity="0.451705"/>
<ellipse id="Oval_4" cx="236.013" cy="178.093" rx="3.30348" ry="3.30714" fill="#8EEAF6" fill-opacity="0.451705"/>
<ellipse id="Oval_5" cx="245.451" cy="178.093" rx="3.30348" ry="3.30714" fill="#8EEAF6" fill-opacity="0.451705"/>
</g>
</g>
<g id="ElementCard11">
<g id="Rectangle_13" filter="url(#filter3_d_620_4932)">
<path fillRule="evenodd" clipRule="evenodd" d="M285.565 122.741C285.565 118.608 288.916 115.257 293.05 115.257H518.262C522.395 115.257 525.746 118.608 525.746 122.741V273.257C525.746 277.391 522.396 280.742 518.262 280.742H293.05C288.916 280.742 285.565 277.391 285.565 273.257V122.741Z" fill="white"/>
</g>
<g id="Group 26">
<path id="Path_5" fillRule="evenodd" clipRule="evenodd" d="M326.184 200.121V259.307H317.354V200.121H326.184Z" fill="#E7E4FF"/>
<path id="Path_6" fillRule="evenodd" clipRule="evenodd" d="M326.184 214.265V259.307H317.354V214.265H326.184Z" fill="#C7C1FF"/>
<path id="Path_7" fillRule="evenodd" clipRule="evenodd" d="M326.184 242.553V259.307H317.354V242.553H326.184Z" fill="#8478FF"/>
</g>
<g id="Group 26_2">
<path id="Path_8" fillRule="evenodd" clipRule="evenodd" d="M347.377 185.977V259.307H338.546V185.977H347.377Z" fill="#E7E4FF"/>
<path id="Path_9" fillRule="evenodd" clipRule="evenodd" d="M347.377 207.193V259.307H338.546V207.193H347.377Z" fill="#C7C1FF"/>
<path id="Path_10" fillRule="evenodd" clipRule="evenodd" d="M347.377 242.553V259.307H338.546V242.553H347.377Z" fill="#8478FF"/>
</g>
<g id="Group 26_3">
<path id="Path_11" fillRule="evenodd" clipRule="evenodd" d="M368.569 196.585V259.307H359.739V196.585H368.569Z" fill="#E7E4FF"/>
<path id="Path_12" fillRule="evenodd" clipRule="evenodd" d="M368.569 217.801V259.307H359.739V217.801H368.569Z" fill="#C7C1FF"/>
<path id="Path_13" fillRule="evenodd" clipRule="evenodd" d="M368.569 246.089V259.307H359.739V246.089H368.569Z" fill="#8478FF"/>
</g>
<g id="Group 26_4">
<path id="Path_14" fillRule="evenodd" clipRule="evenodd" d="M389.761 178.905V259.307H380.931V178.905H389.761Z" fill="#E7E4FF"/>
<path id="Path_15" fillRule="evenodd" clipRule="evenodd" d="M389.761 200.121V259.307H380.931V200.121H389.761Z" fill="#C7C1FF"/>
<path id="Path_16" fillRule="evenodd" clipRule="evenodd" d="M389.761 228.409V259.307H380.931V228.409H389.761Z" fill="#8478FF"/>
</g>
<g id="Group 26_5">
<path id="Path_17" fillRule="evenodd" clipRule="evenodd" d="M410.954 164.761V259.307H402.124V164.761H410.954Z" fill="#E7E4FF"/>
<path id="Path_18" fillRule="evenodd" clipRule="evenodd" d="M410.954 193.049V259.307H402.124V193.049H410.954Z" fill="#C7C1FF"/>
<path id="Path_19" fillRule="evenodd" clipRule="evenodd" d="M410.954 235.481V259.307H402.124V235.481H410.954Z" fill="#8478FF"/>
</g>
<g id="Group 26_6">
<path id="Path_20" fillRule="evenodd" clipRule="evenodd" d="M432.146 185.977V259.307H423.316V185.977H432.146Z" fill="#E7E4FF"/>
<path id="Path_21" fillRule="evenodd" clipRule="evenodd" d="M432.146 207.193V259.307H423.316V207.193H432.146Z" fill="#C7C1FF"/>
<path id="Path_22" fillRule="evenodd" clipRule="evenodd" d="M432.146 239.724V259.307H423.316V239.724H432.146Z" fill="#8478FF"/>
</g>
<g id="Group 26_7">
<path id="Path_23" fillRule="evenodd" clipRule="evenodd" d="M453.339 193.049V259.307H444.509V193.049H453.339Z" fill="#E7E4FF"/>
<path id="Path_24" fillRule="evenodd" clipRule="evenodd" d="M453.339 207.193V259.307H444.509V207.193H453.339Z" fill="#C7C1FF"/>
<path id="Path_25" fillRule="evenodd" clipRule="evenodd" d="M453.339 234.774V259.307H444.509V234.774H453.339Z" fill="#8478FF"/>
</g>
<g id="Group 26_8">
<path id="Path_26" fillRule="evenodd" clipRule="evenodd" d="M474.531 178.905V259.307H465.701V178.905H474.531Z" fill="#E7E4FF"/>
<path id="Path_27" fillRule="evenodd" clipRule="evenodd" d="M474.531 207.193V259.307H465.701V207.193H474.531Z" fill="#C7C1FF"/>
<path id="Path_28" fillRule="evenodd" clipRule="evenodd" d="M474.531 241.845V259.307H465.701V241.845H474.531Z" fill="#8478FF"/>
</g>
<g id="Group 26_9">
<path id="Path_29" fillRule="evenodd" clipRule="evenodd" d="M495.724 193.049V259.307H486.894V193.049H495.724Z" fill="#E7E4FF"/>
<path id="Path_30" fillRule="evenodd" clipRule="evenodd" d="M495.724 207.193V259.307H486.894V207.193H495.724Z" fill="#C7C1FF"/>
<path id="Path_31" fillRule="evenodd" clipRule="evenodd" d="M495.724 241.846V259.307H486.894V241.846H495.724Z" fill="#8478FF"/>
</g>
<path id="Rectangle_14" opacity="0.57573" fillRule="evenodd" clipRule="evenodd" d="M314.528 145.667C314.528 144.495 315.478 143.545 316.65 143.545H387.287C388.458 143.545 389.408 144.495 389.408 145.667C389.408 146.838 388.458 147.788 387.287 147.788H316.65C315.478 147.788 314.528 146.838 314.528 145.667Z" fill="#8C81FF"/>
<rect id="Rectangle_15" x="314.528" y="131.522" width="39.5593" height="4.2432" rx="2.1216" fill="#8478FF"/>
</g>
<g id="Chair4">
<path id="Path_32" fillRule="evenodd" clipRule="evenodd" d="M558.372 449.902L569.815 540.31L563.816 540.23L552.373 450.748L558.372 449.902Z" fill="#BFE7FF"/>
<path id="Path_33" fillRule="evenodd" clipRule="evenodd" d="M480.949 464.113C475.732 464.113 471.504 459.884 471.504 454.668C471.504 449.451 475.732 445.223 480.949 445.223H518.711C524.433 445.223 529.215 440.869 529.751 435.173L535.788 370.98C536.324 365.284 541.106 360.93 546.828 360.93H570.528C576.986 360.93 582.078 366.428 581.583 372.868L575.359 453.875C574.915 459.652 570.098 464.113 564.303 464.113H480.949Z" fill="#91D6FF"/>
<path id="Combined Shape" fillRule="evenodd" clipRule="evenodd" d="M471.505 454.587C471.557 454.588 471.609 454.588 471.662 454.588H554.792C560.585 454.588 565.402 450.129 565.847 444.352L572.066 363.634C572.134 362.754 572.098 361.892 571.968 361.058C571.416 360.974 570.85 360.93 570.274 360.93H546.685C540.965 360.93 536.183 365.282 535.646 370.977L529.613 434.936C529.076 440.631 524.295 444.983 518.574 444.983H480.924C475.721 444.983 471.504 449.201 471.504 454.404C471.504 454.465 471.504 454.526 471.505 454.587Z" fill="#BFE7FF"/>
</g>
<g id="Wom1.4">
<g id="Head">
<path id="Path_34" fillRule="evenodd" clipRule="evenodd" d="M545.607 345.36C557.806 342.518 558.609 325.766 549.335 319.955C558.899 299.895 536.782 279.978 521.632 292.261C511.7 288.007 503.446 304.606 512.688 317.498C508.813 339.633 516.699 345.355 530.916 345.598L545.607 345.36Z" fill="#422851"/>
<path id="Path_35" fillRule="evenodd" clipRule="evenodd" d="M545.456 341.359C545.456 341.359 539.522 339.966 539.316 330.237C539.11 320.509 539.255 317.189 539.255 317.189L526.184 316.953C526.184 316.953 526.042 327.794 526.04 331.716C526.034 342.249 518.699 341.359 518.699 341.359C518.699 341.359 520.224 349.9 532.067 350.566C541.314 351.087 545.456 341.359 545.456 341.359Z" fill="url(#paint0_linear_620_4932)"/>
<path id="Path_36" fillRule="evenodd" clipRule="evenodd" d="M542.302 312.331C548.132 312.105 547.181 320.646 541.124 320.634C541.124 320.634 537.606 332.766 525.392 332.766C515.473 332.766 514.827 318.626 514.737 315.805C514.641 312.797 514.628 302.917 514.628 302.917L542.528 302.904L542.302 312.331Z" fill="url(#paint1_linear_620_4932)"/>
<path id="Path_37" d="M527.747 324.616C527.747 324.616 524.838 327.08 521.468 324.773" stroke="#F77B7B" strokeWidth="1.5" strokeLinecap="round"/>
<path id="Path_38" d="M525.827 327.47C524.921 327.888 524.05 327.918 523.272 327.502" stroke="#F49494" strokeLinecap="round"/>
<path id="Path 8" d="M541.707 316.924C541.647 315.554 542.065 314.466 543.461 314.247" stroke="#F77B7B" strokeLinecap="round"/>
<path id="Path_39" fillRule="evenodd" clipRule="evenodd" d="M543.224 311.276C543.224 311.276 540.028 315.566 539.381 315.589C538.733 315.612 538.507 310.009 538.507 310.009C534.586 309.709 524.665 307.732 522.232 303.127C520.532 307.19 517.28 308.995 515.144 308.649L514.739 317.281L513.742 299.926H544.006L543.224 311.276Z" fill="#422851"/>
</g>
<g id="LLeg">
<path id="Path_40" fillRule="evenodd" clipRule="evenodd" d="M485.736 512.911C485.736 512.911 490.967 523.482 486.679 526.813C482.384 530.145 471.041 536.388 471.041 536.388L501.094 534.498L494.414 511.444L485.736 512.911Z" fill="url(#paint2_linear_620_4932)"/>
<path id="Path_41" fillRule="evenodd" clipRule="evenodd" d="M498.187 522.971C496.704 523.145 498.288 528.141 495.077 528.521C491.872 528.9 490.314 524.167 486.678 525.667C483.041 527.168 469.777 534.926 469.255 538.098C468.726 541.269 473.668 542.202 480.445 541.486C487.222 540.77 488.471 538.357 493.559 539.329C498.64 540.3 502.447 538.752 502.279 535.037C502.111 531.323 499.67 522.798 498.187 522.971Z" fill="#222D4E"/>
<path id="Path 14" fillRule="evenodd" clipRule="evenodd" d="M485.019 526.437L485.679 527.427C486.002 527.913 485.843 528.571 485.334 528.855L476.369 533.861C476.078 534.023 475.725 534.03 475.428 533.879L474.037 533.173C476.222 531.589 478.01 530.399 479.985 529.23C481.502 528.333 483.18 527.408 485.019 526.437Z" fill="white" fill-opacity="0.540975"/>
<path id="Path_42" fillRule="evenodd" clipRule="evenodd" d="M531.009 419.745C521.91 420.151 471.27 431.358 462.07 433.262C452.87 435.166 445.091 445.468 452.107 457.397C459.987 470.789 480.318 508.82 485.254 517.393C487.698 521.636 500.023 519.257 497.128 512.135C491.731 498.858 489.224 465.505 475.464 453.344C475.464 453.344 521.74 461.402 541.73 452.172C556.258 445.462 552.971 418.762 531.009 419.745Z" fill="url(#paint3_linear_620_4932)"/>
</g>
<g id="LArm">
<path id="Path_43" fillRule="evenodd" clipRule="evenodd" d="M466.541 365.913C466.541 365.913 466.644 358.506 464.055 354.635C461.465 350.764 461.362 346.652 459.402 346.786C457.442 346.921 459.383 356.478 459.383 356.478C459.383 356.478 456.896 355.528 455.11 354.326C453.323 353.123 447.906 347.196 446.641 348.246C444.494 350.036 447.951 360.131 449.834 362.149C451.723 364.168 462.043 370.807 462.043 370.807L466.541 365.913Z" fill="url(#paint4_linear_620_4932)"/>
<path id="Path_44" fillRule="evenodd" clipRule="evenodd" d="M522.455 361.474C518.222 371.296 510.473 389.34 507.278 394.723C503.274 401.464 496.961 404.434 489.569 399.433C481.801 394.177 460.414 373.677 459.787 369.034C459.165 364.39 464.4 358.819 469.137 361.703C473.873 364.588 493.555 380.976 493.555 380.976C493.555 380.976 501.498 360.603 507.888 348.802C513.421 338.592 528.897 346.543 522.455 361.474Z" fill="#6A5EE3"/>
<path id="Path_45" fillRule="evenodd" clipRule="evenodd" d="M493.473 380.986C493.473 380.986 491.34 388.226 490.841 387.807C490.342 387.388 491.222 379.094 491.222 379.094L493.473 380.986Z" fill="black" fill-opacity="0.302803"/>
</g>
<g id="Body">
<path id="Path_46" fillRule="evenodd" clipRule="evenodd" d="M564.753 349.64C564.753 349.64 554.554 383.811 554.251 390.279C553.949 396.748 562.594 415.76 561.122 420.565C557.728 431.67 514.405 436.451 512.75 421.513C511.978 414.546 513.584 408.293 511.733 400.084C509.889 391.875 502.475 379.677 506.68 368.208C510.885 356.739 509.758 346.129 512.766 344.123C515.774 342.118 522.805 339.988 522.805 339.988C526.224 345.022 537.767 344.949 543.274 339.633C543.274 339.633 556.957 342.289 564.753 349.64Z" fill="#7367F0"/>
<path id="Path_47" fillRule="evenodd" clipRule="evenodd" d="M555.613 355.174C548.814 365.969 548.835 384.765 545.183 387.226C541.532 389.688 527.32 387.272 527.32 389.222C527.32 391.171 546.96 409.036 543.736 417.577C542.048 422.049 542.506 426.049 545.11 429.579L545.96 429.393C553.698 427.644 559.919 424.502 561.122 420.565C562.594 415.76 552.952 396.748 553.254 390.279C553.511 384.788 561.618 359.335 564.062 351.767C562.072 348.254 559.256 349.39 555.613 355.174Z" fill="black" fill-opacity="0.199355"/>
</g>
<g id="RArm">
<path id="Path_48" fillRule="evenodd" clipRule="evenodd" d="M544.02 383.814C544.02 383.814 535.429 376.207 532.799 375.324C530.169 374.441 514.766 373.381 514.864 375.375C514.974 377.513 523.247 377.39 524.104 378.441C524.961 379.492 525.156 386.679 528.396 387.486C531.63 388.292 541.325 389.683 541.325 389.683L544.02 383.814Z" fill="url(#paint5_linear_620_4932)"/>
<path id="Path_49" fillRule="evenodd" clipRule="evenodd" d="M566.875 351.603C575.926 364.384 583.653 383.853 586.62 391.443C589.586 399.033 586.594 410.482 573.551 408.234C560.531 405.993 539.815 393.812 537.523 390.259C535.231 386.706 538.713 380.241 543.098 381.087C547.161 381.87 567.311 390.443 567.311 390.443C567.311 390.443 554.348 367.452 551.182 361.289C545.894 350.996 558.902 340.342 566.875 351.603Z" fill="#6A5EE3"/>
<path id="Path_50" fillRule="evenodd" clipRule="evenodd" d="M567.106 390.286C567.106 390.286 573.896 393.661 573.068 392.245C572.24 390.83 564.515 385.857 564.515 385.857L567.106 390.286Z" fill="black" fill-opacity="0.302803"/>
</g>
</g>
<g id="Men3.2">
<g id="LLeg_2">
<path id="Path_51" fillRule="evenodd" clipRule="evenodd" d="M234.394 509.214C234.394 509.214 234.258 517.925 239.604 521.02C244.95 524.114 253.233 529.864 253.233 529.864L221.724 530.932L222.623 509.136L234.394 509.214Z" fill="#F8CFCF"/>
<path id="Path_52" fillRule="evenodd" clipRule="evenodd" d="M220.624 518.814L220.112 532.946H227.43L227.932 531.126C227.932 531.126 230.687 531.012 232.279 531.799C233.962 532.631 234.188 533.034 234.188 533.034L257.402 533.083C257.402 533.083 258.547 528.515 251.471 525.211C244.395 521.907 239.243 517.217 238.264 516.737C237.278 516.253 235.289 515.98 233.889 517.117C232.488 518.252 231.38 521.239 228.206 521.332C224.121 521.453 221.775 516.424 220.624 518.814Z" fill="#4B4B4B"/>
<path id="Path 38" d="M240.463 518.27L238.056 520.598" stroke="white" strokeWidth="2" strokeLinecap="round"/>
<path id="Path 38_2" d="M243.972 520.034L241.566 522.362" stroke="white" strokeWidth="2" strokeLinecap="round"/>
<path id="Path 38_3" d="M247.481 521.799L245.075 524.127" stroke="white" strokeWidth="2" strokeLinecap="round"/>
<path id="Path_53" fillRule="evenodd" clipRule="evenodd" d="M211.333 321.02C211.333 321.02 220.086 417.4 220.358 424.099C220.63 430.799 217.547 442.362 217.607 454.894C217.667 467.426 218.733 511.595 218.733 511.595L238.043 512.004C238.043 512.004 246.158 432.187 246.245 420.218C246.332 408.249 247.077 322.172 247.077 322.172L211.333 321.02Z" fill="#383838"/>
<path id="Path_54" opacity="0.283552" fillRule="evenodd" clipRule="evenodd" d="M225.251 427.099L225.273 427.338C225.563 431.424 223.026 444.866 217.66 467.665L217.607 454.894C217.548 442.585 220.521 431.212 220.37 424.463L220.358 424.099C220.267 421.842 219.212 409.399 217.853 393.892L218.487 396.163C222.21 409.615 224.465 419.928 225.251 427.099Z" fill="white" fill-opacity="0.192499"/>
</g>
<g id="RLeg">
<path id="Path_55" fillRule="evenodd" clipRule="evenodd" d="M187.81 507.986L184.086 530.545L197.814 530.476L198.248 507.633L187.81 507.986Z" fill="#F8CFCF"/>
<path id="Path_56" fillRule="evenodd" clipRule="evenodd" d="M186.332 517.743C184.989 518.035 184.015 519.202 183.97 520.576L183.859 523.93C181.917 526.084 180.999 532.307 180.903 532.996C180.897 533.04 180.893 533.081 180.897 533.125C181.182 536.174 201.152 536.136 203.026 533.269C203.112 533.138 203.118 532.982 203.092 532.828C202.882 531.558 201.767 525.405 199.621 523.726L199.609 520.404C199.604 519.051 198.693 517.869 197.386 517.518L195.323 516.964C193.317 514.037 190.582 514.141 188.238 517.33L186.332 517.743Z" fill="#4B4B4B"/>
<path id="Path 39" d="M189.018 519.768H194.575" stroke="white" strokeWidth="2" strokeLinecap="round"/>
<path id="Path 39_2" d="M189.018 522.413H194.575" stroke="white" strokeWidth="2" strokeLinecap="round"/>
<path id="Path 39_3" d="M189.901 525.057H193.691" stroke="white" strokeWidth="2" strokeLinecap="round"/>
<path id="Path_57" fillRule="evenodd" clipRule="evenodd" d="M194.733 322.285C194.733 322.285 188.599 388.351 188.683 401.002C188.766 413.655 190.57 419.211 188.003 428.287C185.434 437.363 183.244 509.806 183.244 509.806L202.235 511.884C202.235 511.884 214.368 434.366 215.687 423.619C217.006 412.871 233.312 321.373 233.312 321.373L194.733 322.285Z" fill="#2E2E2E"/>
<path id="Path_58" opacity="0.283552" fillRule="evenodd" clipRule="evenodd" d="M199.862 367.125L198.704 371.318C195.312 383.693 192.181 396.78 193.001 415.475L193.041 416.328C193.243 420.378 190.667 443.881 185.312 486.836L184.803 489.855C184.278 492.935 183.81 495.562 183.401 497.737L183.517 493.933C184.2 472.934 186.036 435.235 188.002 428.287C190.57 419.211 188.766 413.655 188.683 401.002C188.624 392.146 191.612 357.117 193.41 336.896L194.733 322.285L202.75 322.095L202.769 324.346C202.91 345.119 201.941 359.378 199.862 367.125Z" fill="white" fill-opacity="0.192499"/>
</g>
<g id="LArm_2">
<g id="Group 6">
<path id="Path_59" fillRule="evenodd" clipRule="evenodd" d="M288.167 240.586C288.167 240.586 286.581 231.848 287.152 230.078C287.638 228.549 292.24 226.344 292.24 226.344C292.24 226.344 300.245 213.838 301.997 215.111C303.422 216.143 297.828 225.363 297.828 225.363C297.828 225.363 302.929 230.656 302.858 233.022C302.786 235.388 294.533 242.794 294.533 242.794L288.167 240.586Z" fill="#F8CFCF"/>
<path id="Path_60" fillRule="evenodd" clipRule="evenodd" d="M292.413 226.218C292.413 226.218 295.958 225.741 296.522 226.832C297.003 227.762 294.057 230.399 294.057 231.14C294.057 231.881 294.1 237.491 294.337 237.542C294.574 237.593 297.888 228.387 297.181 226.44C296.599 224.841 292.413 226.218 292.413 226.218Z" fill="#F28585"/>
</g>
<path id="Path_61" fillRule="evenodd" clipRule="evenodd" d="M245.878 251.704C236.593 243.682 222.65 258.144 238.197 271.589C244.129 276.719 262.76 289.513 267.328 292.327C274.599 296.805 280.574 292.764 283.029 285.717C285.112 279.743 297.571 247.763 295.985 243.066C294.952 240.002 289.403 237.021 286.618 239.432C282.548 242.955 270.098 273.859 270.098 273.859C270.098 273.859 256.436 260.825 245.878 251.704Z" fill="#877BFF"/>
<path id="Path_62" fillRule="evenodd" clipRule="evenodd" d="M270.098 273.859C270.098 273.859 274.176 278.806 274.47 278.05C274.765 277.295 271.237 270.938 271.237 270.938L270.098 273.859Z" fill="black" fill-opacity="0.159856"/>
<path id="Path 41" d="M285.537 241.413C288.776 239.913 292.315 241.768 294.266 244.744" stroke="#5386BF" strokeLinecap="round"/>
</g>
<g id="Head_2">
<path id="Path_63" fillRule="evenodd" clipRule="evenodd" d="M206.074 242.451C206.074 242.451 211.412 241.223 211.597 232.648C211.782 224.073 211.652 221.146 211.652 221.146L224.308 220.938C224.308 220.938 224.436 230.494 224.438 233.951C224.443 241.477 230.144 243.51 230.144 243.51C230.144 243.51 229.67 251.738 219.015 252.326C210.696 252.785 206.074 242.451 206.074 242.451Z" fill="#F8C5C5"/>
<g id="Head1">
<path id="Path_64" fillRule="evenodd" clipRule="evenodd" d="M235.583 211.902L235.301 220.006C237.692 217.25 239.307 213.834 239.786 209.453L235.583 211.902Z" fill="url(#paint6_linear_620_4932)"/>
<path id="Path_65" fillRule="evenodd" clipRule="evenodd" d="M210.49 216.811C205.245 216.612 206.101 224.14 211.55 224.13C211.55 224.13 217.406 235.673 226.6 235.703C231.029 235.718 232.475 231.85 233.802 229.136C235.13 226.421 236.104 222.36 236.185 219.873C236.272 217.222 236.283 208.512 236.283 208.512L210.286 208.501L210.49 216.811Z" fill="#F8CFCF"/>
<path id="Path_66" fillRule="evenodd" clipRule="evenodd" d="M236.283 212.509H218C217.808 215.748 216.711 218.437 213.924 220.421C214.003 225.166 215.622 228.62 218.43 231.043C220.874 224.175 235.827 226.054 234.739 230.535C232.455 239.949 211.04 240.162 212.339 218.496C211.484 217.354 208.429 217.141 207.423 218.282C205.706 213.549 206.439 206.852 211.406 205.884C207.507 195.797 260.529 193.663 236.283 212.509Z" fill="#424242"/>
<path id="Path_67" d="M224.568 230.119C224.568 230.119 226.951 231.835 230.086 229.959" stroke="#CC6969" strokeLinecap="round"/>
<path id="Path 8_2" d="M211.309 221.109C211.363 219.901 210.987 218.942 209.73 218.749" stroke="#DE6767" strokeLinecap="round"/>
</g>
</g>
<g id="Body_2">
<path id="Path_68" fillRule="evenodd" clipRule="evenodd" d="M208.421 241.02L223.524 250.816L230.334 242.907C230.334 242.907 244.68 247.347 247.342 252.538C251.182 260.028 246.122 320.042 248.328 323.663C253.029 331.38 246.779 336.678 226.089 338.624C205.399 340.571 187.044 338.977 190.374 328.678C193.706 318.379 180.851 251.167 192.184 247.465C195.726 246.308 208.421 241.02 208.421 241.02Z" fill="#7367F0"/>
<path id="Path_69" fillRule="evenodd" clipRule="evenodd" d="M198.229 259.549C199.144 261.164 198.672 266.757 196.815 276.329C195.232 284.484 197.042 292.919 201.819 299.725L202.088 300.101C203.703 302.331 205.193 305.267 206.556 308.909C209.9 317.84 202.188 325.286 208.098 339.259L207.383 339.225C195.787 338.626 188.122 335.643 190.374 328.678C193.106 320.234 184.956 273.53 188.179 254.941C193.758 256.035 197.108 257.571 198.229 259.549Z" fill="black" fill-opacity="0.159856"/>
<path id="Path_70" fillRule="evenodd" clipRule="evenodd" d="M208.421 241.02L221.93 249.815C219.95 252.113 218.888 254.787 218.487 257.729C213.295 253.676 207.898 248.012 206.226 241.922L208.421 241.02Z" fill="#5E54C7"/>
<path id="Path_71" fillRule="evenodd" clipRule="evenodd" d="M224.592 249.586C226.876 251.128 228.698 253.859 230.182 256.964C231.96 253.396 232.641 248.684 232.641 243.659L230.41 242.779L224.592 249.586Z" fill="#5E54C7"/>
<path id="Path_72" fillRule="evenodd" clipRule="evenodd" d="M221.93 249.814L222.107 249.913C222.916 250.364 223.926 250.232 224.592 249.586C229.685 268.227 233.267 288.744 234.35 309.596L229.034 318.41L222.817 310.161C223.627 288.49 223.622 267.359 221.93 249.814Z" fill="#CBC6FF"/>
</g>
<g id="RArm_2">
<g id="Example Book Back">
<g id="Group 3">
<path id="Rectangle_16" d="M235.415 297.01C235.561 295.618 236.836 294.627 238.222 294.83L250.527 296.629C251.836 296.82 252.76 298.01 252.622 299.324L250.413 320.338C250.267 321.73 248.991 322.721 247.606 322.519L235.3 320.72C233.992 320.529 233.068 319.339 233.206 318.024L235.415 297.01Z" fill="#6182EC"/>
<path id="Rectangle_17" fillRule="evenodd" clipRule="evenodd" d="M236.88 296.587C237.032 295.148 238.385 294.148 239.805 294.427L252.672 296.95L261.477 296.803C262.956 296.778 264.123 298.053 263.969 299.524L261.764 320.506C261.633 321.744 260.6 322.691 259.354 322.712L249.948 322.869L236.65 320.261C235.397 320.015 234.54 318.854 234.673 317.585L236.88 296.587Z" fill="#96EFFA"/>
<path id="Rectangle_18" d="M239.205 301.507C239.303 300.58 240.168 299.933 241.084 300.1L246.99 301.181C247.813 301.332 248.381 302.09 248.293 302.922L248.041 305.316C247.944 306.243 247.079 306.891 246.162 306.723L240.257 305.642C239.434 305.492 238.866 304.733 238.954 303.901L239.205 301.507Z" fill="#74CFDB"/>
<path id="Rectangle_19" d="M251.689 297.651C251.735 297.212 252.129 296.893 252.568 296.939L253.085 296.994C253.525 297.04 253.844 297.434 253.797 297.873L251.249 322.117C251.203 322.556 250.809 322.875 250.37 322.829L249.853 322.774C249.414 322.728 249.095 322.335 249.141 321.895L251.689 297.651Z" fill="#EAEFFF"/>
<path id="Rectangle_20" d="M252.392 297.725C252.438 297.286 252.832 296.967 253.271 297.013L253.788 297.068C254.228 297.114 254.546 297.507 254.5 297.947L251.952 322.191C251.906 322.63 251.512 322.949 251.073 322.903L250.556 322.848C250.116 322.802 249.798 322.409 249.844 321.969L252.392 297.725Z" fill="#7AD2DD"/>
</g>
</g>
<path id="Path_73" fillRule="evenodd" clipRule="evenodd" d="M222.222 306.434C222.222 306.434 226.809 305.518 228.686 304.053C230.562 302.589 236.247 301.554 236.247 301.554L234.429 305.36C234.429 305.36 248.361 304.06 248.691 305.426C249.021 306.791 244.991 308.276 244.991 308.276C244.991 308.276 243.004 311.964 241.08 314.102C239.26 316.125 230.217 315.884 227.046 314.622C224.307 313.531 221.329 314.077 221.329 314.077L222.222 306.434Z" fill="#F8CFCF"/>
<path id="Path_74" fillRule="evenodd" clipRule="evenodd" d="M185.334 253.259C190.316 242.562 207.375 249.769 203.075 261.229C198.911 272.33 188.822 298.25 188.822 298.25C188.822 298.25 220.794 302.283 223.286 304.164C226.612 306.673 224.556 313.833 221.73 315.108C219.339 316.186 201.577 316.816 184.198 315.455C175.601 314.782 169.243 311.112 168.356 301.579C167.735 294.903 180.534 263.564 185.334 253.259Z" fill="#877BFF"/>
<path id="Path_75" fillRule="evenodd" clipRule="evenodd" d="M188.834 298.244C188.834 298.244 186.176 303.263 186.936 303.365C187.695 303.468 191.556 298.611 191.556 298.611L188.834 298.244Z" fill="black" fill-opacity="0.159856"/>
<path id="Path 40" d="M221.036 303.619C222.022 306.747 221.329 310.415 219.961 313.008" stroke="#5386BF" strokeLinecap="round"/>
</g>
</g>
<g id="Vase2">
<g id="Group 39">
<path id="Rectangle_21" fillRule="evenodd" clipRule="evenodd" d="M85.6958 443.366C93.9618 439.654 103.669 443.381 107.329 451.67L110.191 458.155C101.925 461.867 92.2177 458.14 88.5585 449.851L85.6958 443.366Z" fill="#02D3AF"/>
<path id="Path_76" fillRule="evenodd" clipRule="evenodd" d="M97.5067 447.322C105.756 453.192 111.105 459.734 113.57 466.946C116.048 474.193 117.063 486.341 116.602 503.367C116.595 503.63 116.801 503.85 117.062 503.857C117.323 503.864 117.541 503.657 117.548 503.393C118.012 486.261 116.989 474.016 114.466 466.634C111.93 459.217 106.454 452.52 98.0526 446.541C97.839 446.389 97.5435 446.441 97.3928 446.656C97.242 446.872 97.293 447.17 97.5067 447.322Z" fill="#02B596"/>
<path id="Rectangle_22" fillRule="evenodd" clipRule="evenodd" d="M155.821 439.339C147.687 435.513 137.992 439.042 134.219 447.202L131.006 454.153C139.14 457.979 148.835 454.451 152.608 446.291L155.821 439.339Z" fill="#02D3AF"/>
<g id="Group 88">
<path id="Rectangle_23" d="M90.8298 423.405C98.6738 421.738 106.384 426.745 108.051 434.589L109.401 440.939C101.557 442.606 93.8469 437.599 92.1796 429.755L90.8298 423.405Z" fill="#02D3AF"/>
<path id="Path_77" fillRule="evenodd" clipRule="evenodd" d="M96.5983 428.471C102.644 432.692 106.733 437.243 108.878 442.119L109.01 442.426L109.143 442.749C111.341 448.205 114.979 462.495 120.039 485.565C120.095 485.822 120.348 485.986 120.604 485.93C120.859 485.874 121.02 485.619 120.964 485.362L120.337 482.516L119.605 479.222C115.034 458.781 111.752 446.301 109.744 441.735C107.521 436.682 103.315 432.001 97.1359 427.687C96.9205 427.537 96.6256 427.591 96.4771 427.807C96.3287 428.024 96.3829 428.321 96.5983 428.471Z" fill="#02B596"/>
</g>
<path id="Rectangle_24" fillRule="evenodd" clipRule="evenodd" d="M143.956 418.58C135.311 418.428 128.18 425.314 128.03 433.96L127.897 441.673C136.542 441.825 143.673 434.939 143.823 426.293L143.956 418.58Z" fill="#02D3AF"/>
<path id="Path_78" fillRule="evenodd" clipRule="evenodd" d="M138.283 421.682C132.722 429.842 128.659 437.719 126.095 445.313C123.535 452.894 120.983 464.601 118.432 480.444C118.39 480.704 118.566 480.95 118.824 480.992C119.082 481.034 119.325 480.857 119.367 480.597L119.68 478.671L119.896 477.373C122.262 463.206 124.628 452.62 126.991 445.621C129.526 438.115 133.549 430.315 139.063 422.223C139.212 422.005 139.157 421.708 138.941 421.559C138.726 421.409 138.431 421.464 138.283 421.682Z" fill="#02B596"/>
<g id="Group 87">
<path id="Path_79" fillRule="evenodd" clipRule="evenodd" d="M126.237 416.336C126.237 416.336 121.728 429.184 119.734 448.108C117.741 467.033 118.904 485.958 118.904 485.958L121.105 486.158C121.105 486.158 119.923 464.07 121.342 448.192C122.762 432.314 127.338 416.436 127.338 416.436L126.237 416.336Z" fill="#02B596"/>
<ellipse id="Oval_6" cx="128.534" cy="409.971" rx="7.26372" ry="11.1372" transform="rotate(14 128.534 409.971)" fill="#C2FFF4"/>
<ellipse id="Oval_7" cx="128.68" cy="410.644" rx="5.05298" ry="7.26093" transform="rotate(14 128.68 410.644)" fill="#02D3AF"/>
<path id="Path_80" fillRule="evenodd" clipRule="evenodd" d="M128.058 417.025L132.116 404.361C132.357 403.608 131.947 402.801 131.201 402.557C130.455 402.314 129.654 402.727 129.413 403.48L125.355 416.144C125.114 416.897 125.523 417.704 126.27 417.948C127.016 418.191 127.817 417.778 128.058 417.025Z" fill="url(#paint7_linear_620_4932)"/>
</g>
<g id="Group 87_2">
<path id="Path_81" fillRule="evenodd" clipRule="evenodd" d="M104.283 403.606C104.283 403.606 110.111 415.912 114.072 434.524C118.033 453.137 118.854 472.08 118.854 472.08L116.687 472.509C116.687 472.509 115.553 450.418 112.482 434.776C109.41 419.133 103.2 403.821 103.2 403.821L104.283 403.606Z" fill="#02B596"/>
<ellipse id="Oval_8" rx="7.26372" ry="11.1372" transform="matrix(-0.939693 0.34202 0.34202 0.939693 101.334 397.516)" fill="#C2FFF4"/>
<ellipse id="Oval_9" rx="5.05298" ry="7.26093" transform="matrix(-0.939693 0.34202 0.34202 0.939693 101.259 398.201)" fill="#02D3AF"/>
<path id="Path_82" fillRule="evenodd" clipRule="evenodd" d="M102.545 404.482L97.1855 392.311C96.8669 391.588 97.1898 390.742 97.9068 390.422C98.6237 390.102 99.4632 390.429 99.7818 391.152L105.141 403.323C105.46 404.046 105.137 404.892 104.42 405.212C103.703 405.532 102.863 405.205 102.545 404.482Z" fill="url(#paint8_linear_620_4932)"/>
</g>
<path id="Path_83" fillRule="evenodd" clipRule="evenodd" d="M151.352 441.368C140.124 445.762 132.296 450.839 127.869 456.619C123.443 462.398 120.518 471.361 119.076 483.51C119.045 483.772 119.23 484.01 119.489 484.041C119.749 484.072 119.985 483.886 120.016 483.624C121.44 471.631 124.314 462.823 128.619 457.203C132.923 451.582 140.614 446.595 151.694 442.259C151.938 442.163 152.059 441.887 151.964 441.641C151.87 441.395 151.596 441.273 151.352 441.368Z" fill="#02B596"/>
</g>
<g id="Group 38">
<path id="Path 151" fillRule="evenodd" clipRule="evenodd" d="M121.262 476.615C115.931 457.618 94.8789 463.177 94.8789 463.177C94.8789 463.177 110.64 468.328 118.679 476.615H121.262Z" fill="#02B596"/>
<path id="Path 151_2" fillRule="evenodd" clipRule="evenodd" d="M121.207 473.697C126.538 454.699 144.307 457.477 144.307 457.477C144.307 457.477 133.515 466.348 123.791 473.697H121.207Z" fill="#02B596"/>
<path id="Path 151_3" fillRule="evenodd" clipRule="evenodd" d="M121.168 477.473C116.402 460.619 127.519 446.112 127.519 446.112C127.519 446.112 126.956 466.072 123.092 476.242L121.168 477.473Z" fill="#02B596"/>
<path id="Path 114" fillRule="evenodd" clipRule="evenodd" d="M116.505 473.697C114.398 467.607 112.302 459.102 110.732 450.857C118.494 453.979 120.988 466.417 118.494 473.697H116.505Z" fill="#02D3AF"/>
<g id="Group 89">
<path id="Rectangle_25" fillRule="evenodd" clipRule="evenodd" d="M101.354 469.782C101.251 468.604 102.18 467.591 103.363 467.591H134.015C135.197 467.591 136.126 468.604 136.023 469.782L130.116 537.375C130.025 538.416 129.153 539.215 128.108 539.215H109.27C108.224 539.215 107.352 538.416 107.261 537.375L101.354 469.782Z" fill="#7569EC"/>
<mask id="mask1_620_4932" style="mask-type:alpha" maskUnits="userSpaceOnUse" x="101" y="467" width="36" height="73">
<path id="Rectangle_26" fillRule="evenodd" clipRule="evenodd" d="M101.354 469.782C101.251 468.604 102.18 467.591 103.363 467.591H134.015C135.197 467.591 136.126 468.604 136.023 469.782L130.116 537.375C130.025 538.416 129.153 539.215 128.108 539.215H109.27C108.224 539.215 107.352 538.416 107.261 537.375L101.354 469.782Z" fill="white"/>
</mask>
<g mask="url(#mask1_620_4932)">
<path id="Rectangle_27" fillRule="evenodd" clipRule="evenodd" d="M96.7417 463.119H109.686C101.665 493.572 125.812 514.508 109.686 544.961H96.7417V463.119Z" fill="#8175FF"/>
</g>
</g>
</g>
</g>
<g id="Chair4_2">
<path id="Path 25" fillRule="evenodd" clipRule="evenodd" d="M679.078 449.902L667.635 540.31L673.635 540.23L685.078 450.748L679.078 449.902Z" fill="#91D6FF"/>
<path id="Path_84" fillRule="evenodd" clipRule="evenodd" d="M645.779 449.902L634.336 540.31L640.336 540.23L651.779 450.748L645.779 449.902Z" fill="#91D6FF"/>
<path id="Path_85" fillRule="evenodd" clipRule="evenodd" d="M718.827 449.902L730.27 540.31L724.27 540.23L712.827 450.748L718.827 449.902Z" fill="#BFE7FF"/>
<path id="Path_86" fillRule="evenodd" clipRule="evenodd" d="M641.403 464.113C636.187 464.113 631.958 459.884 631.958 454.668C631.958 449.451 636.187 445.223 641.403 445.223H679.166C684.887 445.223 689.669 440.869 690.205 435.173L696.243 370.98C696.778 365.284 701.56 360.93 707.282 360.93H730.982C737.441 360.93 742.532 366.428 742.038 372.868L735.813 453.875C735.369 459.652 730.552 464.113 724.758 464.113H641.403Z" fill="#91D6FF"/>
<path id="Combined Shape_2" fillRule="evenodd" clipRule="evenodd" d="M631.96 454.587C632.012 454.588 632.064 454.588 632.116 454.588H715.246C721.039 454.588 725.856 450.129 726.301 444.352L732.521 363.634C732.589 362.754 732.552 361.892 732.422 361.058C731.87 360.974 731.305 360.93 730.728 360.93H707.14C701.419 360.93 696.638 365.282 696.101 370.977L690.068 434.936C689.53 440.631 684.749 444.983 679.029 444.983H641.379C636.176 444.983 631.958 449.201 631.958 454.404C631.958 454.465 631.959 454.526 631.96 454.587Z" fill="#BFE7FF"/>
</g>
<g id="Wom2.4">
<g id="LLeg_3">
<path id="Path_87" fillRule="evenodd" clipRule="evenodd" d="M643.441 511.435C643.441 511.435 648.687 522.03 644.387 525.369C640.08 528.708 628.703 534.966 628.703 534.966L658.843 533.072L652.144 509.964L643.441 511.435Z" fill="url(#paint9_linear_620_4932)"/>
<path id="Path_88" fillRule="evenodd" clipRule="evenodd" d="M655.858 521.023C654.909 521.475 656.469 525.733 653.132 525.433C649.796 525.135 647.701 520.734 645.241 521.02C642.779 521.305 641.218 525.737 636.533 528.823C631.849 531.91 624.904 535.592 625.37 538.695C625.835 541.799 636.764 542.63 642.301 541.602C647.837 540.576 650.422 538.35 654.014 538.528C657.606 538.705 659.863 538.265 660.99 535.959C662.115 533.652 656.952 520.5 655.858 521.023Z" fill="#EEDFE8"/>
<path id="Path_89" fillRule="evenodd" clipRule="evenodd" d="M655.591 535.187L655.284 535.17C650.832 534.794 647.778 537.594 643.541 538.383C639.303 539.173 628.127 539.447 626.343 536.796C626.258 536.67 626.179 536.541 626.107 536.411C625.507 537.149 625.225 537.937 625.37 538.856C625.835 541.81 636.765 542.601 642.302 541.623C647.839 540.646 650.424 538.528 654.016 538.696L654.655 538.72C657.878 538.808 659.934 538.314 660.992 536.252C661.25 535.749 661.192 534.669 660.933 533.303C659.431 534.331 657.535 535.247 655.591 535.187Z" fill="#EC7AA5"/>
<path id="Path_90" fillRule="evenodd" clipRule="evenodd" d="M688.844 418.052C679.719 418.459 628.934 429.692 619.707 431.6C610.48 433.508 602.68 443.834 609.716 455.792C617.618 469.214 638.008 507.334 642.958 515.927C645.408 520.18 657.77 517.795 654.866 510.657C649.453 497.349 646.939 463.918 633.139 451.729C633.139 451.729 679.549 459.806 699.596 450.554C714.166 443.828 710.87 417.067 688.844 418.052Z" fill="#413C75"/>
</g>
<g id="LArm_3">
<path id="Path_91" fillRule="evenodd" clipRule="evenodd" d="M625.192 361.094C625.192 361.094 625.295 355.67 622.698 351.79C620.101 347.91 619.998 343.788 618.032 343.923C616.067 344.058 618.013 353.638 618.013 353.638C618.013 353.638 615.519 352.685 613.727 351.48C611.936 350.275 606.503 344.334 605.234 345.387C603.081 347.181 606.548 357.299 608.437 359.322C610.331 361.346 619.681 367 619.681 367L647.215 394.739L651.332 380.014L625.192 361.094Z" fill="url(#paint10_linear_620_4932)"/>
<path id="Path_92" fillRule="evenodd" clipRule="evenodd" d="M680.266 358.646C676.021 368.49 668.249 386.576 665.045 391.971C661.03 398.728 654.698 401.706 647.285 396.692C645.734 395.643 641.28 391.974 641.28 391.974C641.939 385.552 644.338 380.184 648.474 375.869L651.283 378.192C651.283 378.192 659.249 357.772 665.657 345.944C671.206 335.71 686.727 343.679 680.266 358.646Z" fill="#EA5455"/>
<path id="Path_93" fillRule="evenodd" clipRule="evenodd" d="M651.2 378.203C651.2 378.203 649.061 385.46 648.561 385.04C648.06 384.619 648.943 376.306 648.943 376.306L651.2 378.203Z" fill="black" fill-opacity="0.159856"/>
</g>
<g id="Head_3">
<path id="Path_94" fillRule="evenodd" clipRule="evenodd" d="M698.61 320.431V329.143L705.007 323.992C705.007 323.992 706.974 315.646 708.573 309.447C709.576 305.56 712.019 292.404 702.183 293.02C694.125 278.816 670.659 287.607 670.473 304.96C670.248 325.831 670.431 333.957 670.431 333.957C683.701 334.718 691.17 332.8 698.61 320.431Z" fill="#422851"/>
<path id="Path_95" fillRule="evenodd" clipRule="evenodd" d="M705.146 337.017C705.146 337.017 699.195 335.62 698.988 325.87C698.782 316.119 698.927 312.79 698.927 312.79L685.819 312.554C685.819 312.554 685.676 323.421 685.674 327.352C685.669 336.909 678.64 337.692 678.64 337.692C678.64 337.692 679.842 345.578 691.719 346.246C700.993 346.768 705.146 337.017 705.146 337.017Z" fill="url(#paint11_linear_620_4932)"/>
<path id="Path_96" fillRule="evenodd" clipRule="evenodd" d="M701.982 307.921C707.83 307.695 706.876 316.255 700.802 316.244C700.802 316.244 697.274 328.404 685.024 328.404C675.077 328.404 674.429 314.231 674.339 311.403C674.242 308.389 674.23 298.485 674.23 298.485L702.21 298.472L701.982 307.921Z" fill="url(#paint12_linear_620_4932)"/>
<path id="Path_97" fillRule="evenodd" clipRule="evenodd" d="M702.435 307.865C700.012 308.265 700.306 309.869 699.647 309.729C696.301 309.017 682.757 309.956 681.013 302.508C678.843 307.161 678.312 308.305 673.534 309.554V295.919L703.756 293.02C703.756 293.02 703.287 307.724 702.435 307.865Z" fill="#422851"/>
<path id="Path_98" d="M687.386 320.235C687.386 320.235 684.468 322.705 681.089 320.392" stroke="#F77B7B" strokeWidth="1.5" strokeLinecap="round"/>
<path id="Path_99" d="M685.46 323.095C684.552 323.514 683.678 323.545 682.898 323.127" stroke="#F49494" strokeLinecap="round"/>
<path id="Path 8_3" d="M701.387 312.525C701.326 311.152 701.745 310.061 703.146 309.842" stroke="#F77B7B" strokeLinecap="round"/>
</g>
<g id="Body_3">
<path id="Path_100" fillRule="evenodd" clipRule="evenodd" d="M703.816 336.02C696.348 340.594 687.715 342.271 679.678 337.304C666.562 363.165 663.293 394.022 666.448 428.126C685.574 435.698 701.648 434.209 715.332 425.555L703.816 336.02Z" fill="#FFE4F4"/>
<g id="RLeg_2">
<path id="Path_101" fillRule="evenodd" clipRule="evenodd" d="M610.748 511.86C610.748 511.86 610.906 524.331 600.63 528.993C590.361 533.655 583.044 533.375 583.975 536.979C584.907 540.583 611.637 540.438 614.133 537.619C616.26 535.221 620.887 512.892 622.161 514.599L610.748 511.86Z" fill="url(#paint13_linear_620_4932)"/>
<path id="Path_102" fillRule="evenodd" clipRule="evenodd" d="M618.211 529.472C616.637 528.339 615.313 534.873 611.035 533.056C606.757 531.239 610.131 525.233 607.439 524.126C604.747 523.018 599.548 528.974 592.645 530.421C585.741 531.868 580.135 533.134 578.542 535.821C577.17 538.131 578.542 538.869 578.542 538.869C578.542 538.869 585.188 542.188 589.318 542.919C595.318 543.98 612.658 544.687 614.557 542.752C615.724 541.565 618.999 530.039 618.211 529.472Z" fill="#EEDFE8"/>
<path id="Path_103" fillRule="evenodd" clipRule="evenodd" d="M578.168 536.093C576.866 538.216 578.92 539.32 579.166 539.442L580.156 539.864C582.037 540.646 586.278 542.322 589.413 542.921C595.161 544.02 612.961 544.671 614.876 542.782C615.212 542.45 615.627 541.237 616.03 539.661L614.808 539.794C608.931 540.417 595.81 541.543 589.335 540.018C583.587 538.664 580.441 536.437 579.006 535.136C578.657 535.436 578.375 535.754 578.168 536.093Z" fill="#EC7AA5"/>
<path id="Path_104" fillRule="evenodd" clipRule="evenodd" d="M717.434 414.197C717.434 414.197 730.7 442.212 712.058 451.832C694.029 461.135 640.057 450.132 640.057 450.132C640.057 450.132 641.021 457.897 640.057 464.822C637.538 482.909 625.558 513.043 623.024 516.829C619.519 522.066 608.842 518.117 608.641 513.757C608.44 509.397 616.69 453.713 617.944 443.095C619.192 432.476 623.133 430.933 634.641 428.03C637.285 427.363 668.552 419.593 671.417 419.82C696.028 421.766 717.434 414.197 717.434 414.197Z" fill="#524D87"/>
<path id="Path_105" fillRule="evenodd" clipRule="evenodd" d="M702.892 448.941C685.043 450.941 637.789 446.818 635.891 448.691C634.079 450.48 634.381 481.595 630.316 499.605L630.935 497.904C634.757 487.287 638.726 474.375 640.057 464.822C641.021 457.897 640.057 450.132 640.057 450.132L642.233 450.553C652.492 452.48 696.192 460.019 712.058 451.832C720.654 447.396 724.162 440.026 722.581 429.723C719.86 441.369 713.297 447.775 702.892 448.941Z" fill="white" fill-opacity="0.056108"/>
</g>
<path id="Path_106" fillRule="evenodd" clipRule="evenodd" d="M703.49 336.041C691.121 376.558 683.704 433.999 722.332 424.006C701.813 386.226 729.708 369.222 723.385 349.696C721.223 343.02 703.651 335.517 703.49 336.041Z" fill="#EA5455"/>
<path id="Path_107" fillRule="evenodd" clipRule="evenodd" d="M717.44 352.866C703.461 354.975 714.984 379.383 710.37 383.06C705.756 386.736 697.724 387.133 696.858 389.38C695.118 393.894 703.531 405.291 722.1 423.571L722.332 424.006C704.458 391.096 723.321 373.951 724.302 357.171C722.23 353.923 719.943 352.488 717.44 352.866Z" fill="black" fill-opacity="0.159856"/>
<path id="Path_108" fillRule="evenodd" clipRule="evenodd" d="M680.332 337.02C675.612 348.858 673.344 358.147 671.227 375.523C669.462 389.995 670.345 419.86 670.345 419.86L664.512 421.007C664.512 421.007 660.343 374.868 661.736 368.927C664.076 358.958 665.661 353.133 668.75 344.02C670.452 339.018 680.332 337.02 680.332 337.02Z" fill="#EA5455"/>
</g>
<g id="RArm_3">
<path id="Path_109" fillRule="evenodd" clipRule="evenodd" d="M700.892 382.038C700.892 382.038 693.277 374.412 690.639 373.527C688.002 372.642 673.555 371.579 673.653 373.579C673.763 375.721 683.06 375.598 683.92 376.652C684.779 377.705 685.974 385.909 689.224 386.717C692.467 387.526 699.19 389.92 699.19 389.92L729.114 405.382L725.926 389.921L700.892 382.038Z" fill="url(#paint14_linear_620_4932)"/>
<path id="Path_110" fillRule="evenodd" clipRule="evenodd" d="M723.813 349.752C732.89 362.562 740.64 382.076 743.615 389.684C746.589 397.292 743.589 408.767 730.508 406.514C728.951 406.246 726.417 405.26 726.417 405.26C721.608 398.667 720.764 393.007 722.559 387.967L724.251 388.681C724.251 388.681 711.25 365.637 708.075 359.459C702.773 349.143 715.818 338.464 723.813 349.752Z" fill="#EA5455"/>
<path id="Path_111" fillRule="evenodd" clipRule="evenodd" d="M724.251 388.681C724.251 388.681 730.854 391.907 730.024 390.488C729.193 389.069 721.735 384.202 721.735 384.202L724.251 388.681Z" fill="black" fill-opacity="0.159856"/>
</g>
</g>
<g id="Example Ipad1">
<g id="Group 3_2">
<path id="Rectangle_28" fillRule="evenodd" clipRule="evenodd" d="M586.3 346.065C585.971 344.744 586.774 343.407 588.095 343.078L611.564 337.226C612.884 336.897 614.222 337.7 614.551 339.021L623.073 373.201C623.402 374.521 622.599 375.859 621.278 376.188L597.809 382.039C596.488 382.369 595.151 381.565 594.822 380.245L586.3 346.065Z" fill="url(#paint15_linear_620_4932)"/>
<path id="Rectangle_29" fillRule="evenodd" clipRule="evenodd" d="M587.215 346.615C586.886 345.295 587.69 343.958 589.01 343.629L612.48 337.777C613.8 337.448 615.137 338.251 615.467 339.572L623.989 373.752C624.318 375.072 623.514 376.409 622.194 376.739L598.724 382.59C597.404 382.919 596.067 382.116 595.738 380.795L587.215 346.615Z" fill="#518DF8"/>
<path id="Rectangle_30" d="M588.216 346.916C587.92 345.728 588.643 344.524 589.832 344.228L611.904 338.725C613.092 338.428 614.296 339.152 614.592 340.34L622.297 371.243C622.593 372.431 621.87 373.635 620.682 373.931L598.61 379.434C597.421 379.73 596.218 379.007 595.921 377.819L588.216 346.916Z" fill="white"/>
</g>
</g>
<g id="Group 26_10">
<g id="Group 25">
<path id="Rectangle_31" fillRule="evenodd" clipRule="evenodd" d="M383.537 395.891H394.954V540.771H383.537L383.537 395.891Z" fill="#E9E9E9"/>
<path id="Rectangle_32" fillRule="evenodd" clipRule="evenodd" d="M271.708 400.654L361.896 400.654V427.562H286.736V540.771H271.708V400.654Z" fill="#D3D3D3"/>
<path id="Rectangle_33" fillRule="evenodd" clipRule="evenodd" d="M271.124 400.654H279.124V540.771H271.124V400.654Z" fill="#DBDBDB"/>
</g>
<g id="Group 25_2">
<path id="Rectangle_34" fillRule="evenodd" clipRule="evenodd" d="M663.762 400.654H679.762V540.771H663.762V400.654Z" fill="#E9E9E9"/>
<path id="Rectangle_35" fillRule="evenodd" clipRule="evenodd" d="M663.762 395.891H673.762V540.771H663.762L663.762 395.891Z" fill="#DBDBDB"/>
<path id="Rectangle_36" fillRule="evenodd" clipRule="evenodd" d="M531.339 400.654L670.339 400.654V427.21H550.046V540.771H531.339V400.654Z" fill="#D3D3D3"/>
<path id="Rectangle_37" fillRule="evenodd" clipRule="evenodd" d="M282.922 395.891L531.812 395.891V436.121H282.922V395.891Z" fill="#DBDBDB"/>
<path id="Rectangle_38" fillRule="evenodd" clipRule="evenodd" d="M526.103 400.654H537.52V436.121H526.103V400.654Z" fill="#E9E9E9"/>
<path id="Rectangle_39" fillRule="evenodd" clipRule="evenodd" d="M531.375 400.654H540.375V540.771H531.375V400.654Z" fill="#DBDBDB"/>
<path id="Rectangle_40" fillRule="evenodd" clipRule="evenodd" d="M532.809 403.035C532.809 399.09 536.007 395.891 539.952 395.891L685.078 395.891C689.023 395.891 692.221 399.09 692.221 403.035C692.221 406.98 689.023 410.178 685.078 410.178H539.952C536.007 410.178 532.809 406.98 532.809 403.035Z" fill="#E9E9E9"/>
<path id="Rectangle_41" fillRule="evenodd" clipRule="evenodd" d="M280.068 398.749H528.958V413.036H280.068V398.749Z" fill="#E9E9E9"/>
<path id="Rectangle_42" fillRule="evenodd" clipRule="evenodd" d="M259.137 403.035C259.137 399.09 262.335 395.891 266.281 395.891H542.745C546.69 395.891 549.888 399.09 549.888 403.035C549.888 406.98 546.69 410.178 542.745 410.178H266.281C262.335 410.178 259.137 406.98 259.137 403.035Z" fill="#DBDBDB"/>
</g>
</g>
<g id="Men2.8">
<g id="RLeg_3">
<path id="Path_112" fillRule="evenodd" clipRule="evenodd" d="M303.72 505.201L295.823 530.844L312.39 531.445C312.39 531.445 310.519 522.673 313.19 514.451C315.332 507.849 317.081 504.555 317.081 504.555L303.72 505.201Z" fill="#92691F"/>
<path id="Path_113" fillRule="evenodd" clipRule="evenodd" d="M311.956 524.398C311.956 524.398 318.279 530.258 324.36 532.429C330.44 534.601 332.768 534.625 333.202 535.441L333.281 535.597C334.531 538.179 333.773 541.609 319.912 541.799C316.543 541.845 313.04 539.888 303.741 537.817L303.07 541.437C297.866 541.368 294.83 540.548 293.961 538.976C292.651 536.625 294.877 525.031 296.413 524.811C297.948 524.591 298.251 529.307 302.374 529.41C306.504 529.513 311.956 524.398 311.956 524.398Z" fill="#391B0B"/>
<path id="Combined Shape_3" fillRule="evenodd" clipRule="evenodd" d="M324.214 532.376C324.026 532.539 323.8 532.711 323.534 532.874C322.609 533.441 321.217 533.892 319.344 533.465C318.393 533.247 317.332 532.639 316.29 531.872C315.244 531.102 314.194 530.157 313.261 529.242C312.328 528.326 311.509 527.436 310.923 526.776C310.63 526.445 310.395 526.172 310.233 525.981C310.207 525.951 310.184 525.923 310.162 525.897C310.3 525.791 310.431 525.688 310.556 525.589C310.574 525.61 310.594 525.633 310.614 525.658C310.774 525.846 311.006 526.117 311.297 526.444C311.878 527.098 312.689 527.979 313.612 528.885C314.535 529.791 315.566 530.719 316.587 531.47C317.612 532.224 318.606 532.783 319.456 532.977C321.186 533.372 322.445 532.955 323.272 532.448C323.42 532.357 323.555 532.263 323.676 532.17C323.855 532.242 324.035 532.311 324.214 532.376Z" fill="#81411E"/>
<path id="Path_114" fillRule="evenodd" clipRule="evenodd" d="M265.963 424.933C265.963 424.933 331.756 430.194 340.821 430.475C349.886 430.755 356.812 443.694 349.792 455.637C341.908 469.044 320.487 507.641 316.3 516.566C312.757 524.11 296.659 521.019 299.556 509.493C303.015 495.7 309.46 464.753 323.229 452.578C323.229 452.578 289.742 464.719 270.881 452.944C260.119 446.227 265.963 424.933 265.963 424.933Z" fill="#7A3636"/>
<path id="Path_115" fillRule="evenodd" clipRule="evenodd" d="M349.792 455.637L348.767 457.396C344.776 464.292 338.334 475.943 332.182 487.29L332.506 486.251C337.263 471.112 344.655 453.279 347.815 447.837C348.922 445.93 350.43 443.986 352.339 442.006C353.148 446.16 352.533 450.974 349.792 455.637Z" fill="white" fill-opacity="0.192499"/>
</g>
<g id="LLeg_4">
<path id="Path_116" fillRule="evenodd" clipRule="evenodd" d="M375.319 505.5C375.319 505.5 379.717 525.058 385.442 527.151C387.647 527.957 368.551 530.258 368.551 530.258L363.757 511.494L375.319 505.5Z" fill="#92691F"/>
<path id="Path_117" fillRule="evenodd" clipRule="evenodd" d="M365.792 523.651L365.473 540.162L372.055 540.212L372.123 536.5C372.123 536.5 377.253 539.576 380.726 540.658C385.399 542.117 403.857 541.353 405.943 539.13C408.029 536.897 408.073 533.344 403.791 532.907C399.51 532.471 392.431 531.171 389.382 528.838C385.696 526.027 384.293 521.567 383.222 521.563C381.582 521.557 381.455 526.804 373.136 526.878C369.97 526.906 365.792 523.651 365.792 523.651Z" fill="#391B0B"/>
<path id="Path_118" fillRule="evenodd" clipRule="evenodd" d="M381.519 523.035C381.519 523.035 385.764 529.659 388.287 530.618C390.811 531.568 392.845 530.502 392.845 530.502C392.845 530.502 388.493 528.768 386.813 525.742C383.005 518.887 382.243 522.375 381.519 523.035Z" fill="#81411E"/>
<path id="Path_119" fillRule="evenodd" clipRule="evenodd" d="M271.407 430.248C271.407 430.248 271.315 451.268 285.439 456.552C299.562 461.835 345.552 459.847 345.552 459.847C345.552 459.847 360.147 513.546 363.644 518.776C367.141 524.006 383.723 524.547 382.826 512.501C381.923 500.455 375.451 455.733 374.199 445.127C372.954 434.52 369.023 431.981 357.54 430.08C353.505 429.412 355.217 428.342 329.273 427.127C323.701 426.866 314.353 428.952 305.761 429.897C297.17 430.842 271.407 430.248 271.407 430.248Z" fill="#7A3636"/>
<path id="Path_120" fillRule="evenodd" clipRule="evenodd" d="M317.31 430.702L317.31 428.261L318.46 428.088C322.642 427.467 326.444 426.995 329.273 427.127L332.256 427.272C355.089 428.427 353.666 429.439 357.54 430.08L358.286 430.206C368.949 432.054 372.808 434.634 374.113 444.439L374.479 447.39C376.208 460.982 381.977 501.178 382.826 512.501C382.893 513.407 382.862 514.242 382.744 515.01L379.383 498.083C374.429 472.986 371.654 458.116 371.055 453.472L370.93 452.507C369.811 444.264 366.883 434.036 357.435 434.703L356.618 434.772C349.966 435.278 337.35 434.002 318.77 430.944L317.31 430.702Z" fill="white" fill-opacity="0.192499"/>
<ellipse id="Oval_10" cx="384.653" cy="446.932" rx="3.77561" ry="6.61391" transform="rotate(13 384.653 446.932)" fill="white" fill-opacity="0.192499"/>
</g>
<g id="RArm_4">
<path id="Path_121" fillRule="evenodd" clipRule="evenodd" d="M281.595 402.335C281.595 402.335 296.986 405.898 296.83 407.297C296.677 408.703 289.901 408.918 289.901 408.918C289.901 408.918 302.427 417.007 301.43 418.586C300.433 420.163 292.266 421.941 288.877 420.668C285.486 419.395 276.699 410.133 276.699 410.133L281.595 402.335Z" fill="url(#paint16_linear_620_4932)"/>
<path id="Path_122" fillRule="evenodd" clipRule="evenodd" d="M281.735 356.736C276.58 363.099 259.002 382.533 259.002 382.533C259.002 382.533 276.58 395.053 281.006 397.701C288.264 402.042 280.883 413.557 275.56 412.278C268.347 410.54 250.139 397.979 241.583 392.896C233.028 387.812 236.301 379.605 242.631 372.116C247.494 366.363 258.064 354.577 265.501 344.231C272.901 333.937 291.739 344.39 281.735 356.736Z" fill="#EA5455"/>
<path id="Path 15" fillRule="evenodd" clipRule="evenodd" d="M259.002 382.533C259.002 382.533 254.053 387.301 254.567 387.67C255.082 388.039 261.045 383.999 261.045 383.999L259.002 382.533Z" fill="black" fill-opacity="0.159856"/>
</g>
<g id="Head_4">
<path id="Path_123" fillRule="evenodd" clipRule="evenodd" d="M312.427 310.027C316.75 310.5 316.443 318.109 311.181 318.506C310.106 325.841 306.27 329.335 301.593 329.739L301.853 340.833L281.167 340.821C281.167 340.821 286.992 332.984 286.702 322.255C286.411 311.526 286.897 301.447 286.897 301.447L313.689 301.928L312.427 310.027Z" fill="url(#paint17_linear_620_4932)"/>
<path id="Path_124" fillRule="evenodd" clipRule="evenodd" d="M303.965 289.333C319.902 293.356 313.327 310.348 313.327 310.348C308.512 309.691 303.878 315.534 302.121 321.264C297.04 326.487 290.459 326.478 286.083 323.436C286.083 323.436 280.062 304.813 282.031 298.612C284.001 292.411 289.439 285.667 303.965 289.333Z" fill="#2C272E"/>
</g>
<g id="Body_4">
<path id="Path_125" fillRule="evenodd" clipRule="evenodd" d="M266.29 343.308C264.859 345.744 263.834 355.556 266.29 394.428C267.562 414.557 262.152 434.396 263.55 443.129C264.948 451.863 274.556 452.906 274.556 452.906L280.159 434.677L282.795 452.906C282.795 452.906 322.529 449.191 326.011 440.145C329.5 431.08 325.118 409.77 324.076 389.703C323.029 369.557 323.815 348.878 321.889 345.744C318.046 339.488 308.154 336.566 302.015 335.63C294.224 334.443 284.166 334.397 278.187 336.293C272.208 338.188 267.721 340.872 266.29 343.308Z" fill="#EA5455"/>
<path id="Path_126" fillRule="evenodd" clipRule="evenodd" d="M306.719 357.151C309.855 380.285 314.048 396.518 319.298 405.85C321.469 409.708 323.674 411.299 325.914 410.622L325.382 405.495C324.852 400.307 324.349 394.962 324.076 389.703C323.885 386.036 323.756 382.351 323.659 378.757L306.719 357.151Z" fill="black" fill-opacity="0.159856"/>
<path id="Path_127" fillRule="evenodd" clipRule="evenodd" d="M278.187 336.293C277.824 336.408 277.474 336.527 277.135 336.651C285.719 340.394 299.894 339.894 307.6 336.845C305.593 336.278 303.668 335.882 302.015 335.63C294.224 334.443 284.166 334.397 278.187 336.293Z" fill="#E5AA41"/>
</g>
<g id="LArm_4">
<path id="Path_128" fillRule="evenodd" clipRule="evenodd" d="M383.487 377.188C383.487 377.188 396.271 368.653 398.531 366.939C400.783 365.232 403.609 352.288 401.858 350.472C401.011 349.593 394.615 355.506 393.475 356.298C392.341 357.082 386.541 360.576 386.541 360.576C386.541 360.576 388.183 350.668 386.77 349.869C385.724 349.288 383.634 351.838 383.355 354.533C383.075 357.227 380.168 360.743 379.792 364.832C379.623 366.619 377.864 370.033 377.864 370.033L383.487 377.188Z" fill="url(#paint18_linear_620_4932)"/>
<path id="Path_129" fillRule="evenodd" clipRule="evenodd" d="M307.347 360.821C312.246 371 320.566 385.883 325.136 394.609C330.544 404.935 336.988 409.31 349.985 401.648C360.87 395.231 376.566 384.91 384.676 379.301C392.223 374.081 383.302 361.195 376.172 365.549C366.713 371.317 342.526 382.748 342.526 382.748C342.526 382.748 330.079 360.011 324.911 349.095C318.337 335.221 297.866 341.121 307.347 360.821Z" fill="#EA5455"/>
<path id="Path_130" fillRule="evenodd" clipRule="evenodd" d="M342.526 382.748C342.526 382.748 344.802 390.764 345.339 390.447C345.876 390.131 344.962 381.599 344.962 381.599L342.526 382.748Z" fill="black" fill-opacity="0.159856"/>
</g>
</g>
<g id="Chair8">
<path id="Path_131" fillRule="evenodd" clipRule="evenodd" d="M292.1 461.241L280.657 542.2L286.656 542.12L298.099 462.087L292.1 461.241Z" fill="#BFE7FF"/>
<path id="Path_132" fillRule="evenodd" clipRule="evenodd" d="M330.262 461.241L341.705 542.2L335.706 542.12L324.263 462.087L330.262 461.241Z" fill="#91D6FF"/>
<path id="Path_133" fillRule="evenodd" clipRule="evenodd" d="M257.215 461.241L245.772 542.2L251.772 542.12L263.215 462.087L257.215 461.241Z" fill="#BFE7FF"/>
<path id="Path_134" fillRule="evenodd" clipRule="evenodd" d="M334.639 466.003C339.855 466.003 344.084 461.774 344.084 456.558C344.084 451.341 339.855 447.113 334.639 447.113H296.876C291.155 447.113 286.373 442.759 285.837 437.063L279.799 372.87C279.263 367.173 274.481 362.82 268.76 362.82H245.06C238.601 362.82 233.509 368.318 234.004 374.758L240.229 455.764C240.672 461.542 245.49 466.003 251.284 466.003H334.639Z" fill="#BFE7FF"/>
<path id="Combined Shape_4" fillRule="evenodd" clipRule="evenodd" d="M344.082 456.477C344.03 456.478 343.978 456.478 343.926 456.478H291.943C286.15 456.478 281.333 452.018 280.888 446.242L274.58 364.383C277.524 366.141 279.598 369.23 279.941 372.867L285.974 436.826C286.511 442.521 291.293 446.873 297.013 446.873H334.663C339.866 446.873 344.084 451.091 344.084 456.294C344.084 456.355 344.083 456.416 344.082 456.477Z" fill="#91D6FF"/>
</g>
<g id="Front Laptop3">
<path id="Rectangle_43" fillRule="evenodd" clipRule="evenodd" d="M558.314 394.563C558.314 394.15 557.98 393.816 557.567 393.816H473.431C473.019 393.816 472.684 394.15 472.684 394.563V395.659C472.684 396.072 473.019 396.406 473.431 396.406H557.567C557.98 396.406 558.314 396.072 558.314 395.659V394.563Z" fill="url(#paint19_linear_620_4932)"/>
<path id="Rectangle_44" fillRule="evenodd" clipRule="evenodd" d="M558.322 394.563C558.322 394.15 557.988 393.816 557.575 393.816H525.248C524.836 393.816 524.502 394.15 524.502 394.563V395.659C524.502 396.072 524.836 396.406 525.248 396.406H557.575C557.988 396.406 558.322 396.072 558.322 395.659V394.563Z" fill="#518DF8"/>
<path id="Rectangle_45" fillRule="evenodd" clipRule="evenodd" d="M564.425 358.373C564.701 356.221 563.024 354.316 560.854 354.316H505.043C503.232 354.316 501.702 355.662 501.472 357.459L497.321 389.872C497.046 392.024 498.722 393.929 500.892 393.929H556.703C558.515 393.929 560.044 392.583 560.274 390.786L564.425 358.373Z" fill="#518DF8"/>
<path id="Rectangle_46" fillRule="evenodd" clipRule="evenodd" d="M562.726 358.373C563.002 356.221 561.325 354.316 559.155 354.316H504.524C502.712 354.316 501.183 355.662 500.953 357.459L496.802 389.872C496.526 392.024 498.203 393.929 500.373 393.929H555.004C556.816 393.929 558.345 392.583 558.575 390.786L562.726 358.373Z" fill="url(#paint20_linear_620_4932)"/>
<path id="Rectangle_47" d="M560.778 359.841C561.025 357.904 559.516 356.19 557.564 356.19H505.805C504.175 356.19 502.798 357.401 502.591 359.019L498.851 388.256C498.604 390.193 500.112 391.907 502.065 391.907H553.824C555.454 391.907 556.831 390.695 557.037 389.078L560.778 359.841Z" fill="white"/>
</g>
<g id="Wom3.8">
<g id="RArm_5">
<path id="Path_135" fillRule="evenodd" clipRule="evenodd" d="M423.977 404.24C423.977 404.24 437.578 407.413 437.44 408.658C437.305 409.91 431.317 410.102 431.317 410.102C431.317 410.102 442.386 417.305 441.505 418.71C440.624 420.115 433.407 421.698 430.412 420.565C427.415 419.431 419.65 411.184 419.65 411.184L397.863 399.483L405.145 389.878L423.977 404.24Z" fill="url(#paint21_linear_620_4932)"/>
<path id="Path_136" fillRule="evenodd" clipRule="evenodd" d="M424.1 363.637C419.544 369.302 404.011 386.607 404.011 386.607L407.077 388.908L397.105 401.005C397.105 401.005 390.737 397.103 388.618 395.835C381.057 391.308 383.95 384 389.544 377.331C393.841 372.209 403.182 361.715 409.754 352.502C416.294 343.336 432.941 352.643 424.1 363.637Z" fill="#FFB66F"/>
<path id="Path 15_2" fillRule="evenodd" clipRule="evenodd" d="M404.01 386.607C404.01 386.607 399.637 390.853 400.092 391.182C400.546 391.511 405.816 387.913 405.816 387.913L404.01 386.607Z" fill="black" fill-opacity="0.159856"/>
<path id="Path 76" fillRule="evenodd" clipRule="evenodd" d="M406.459 387.643L393.461 400.511L399.96 404.764L408.889 389.479L406.459 387.643Z" fill="#FFEDC2"/>
</g>
<g id="LLeg_5">
<path id="Path_137" fillRule="evenodd" clipRule="evenodd" d="M447.967 503.253L440.936 525.902L452.754 526.433C452.754 526.433 451.088 518.685 453.466 511.423C455.373 505.592 456.93 502.683 456.93 502.683L447.967 503.253Z" fill="url(#paint22_linear_620_4932)"/>
<path id="Path_138" fillRule="evenodd" clipRule="evenodd" d="M452.851 519.8C452.851 519.8 452.604 525.566 454.618 527.389C456.631 529.21 467.31 535.937 468.205 537.292C469.1 538.648 467.787 540.303 467.787 540.303C467.787 540.303 456.883 542.013 451.74 539.374C448.026 537.468 445.373 535.911 445.373 535.911L444.233 538.84L438.28 537.985C438.28 537.985 436.444 533.336 437.233 531.024C438.021 528.712 442.09 517.909 442.09 517.909C442.09 517.909 452.851 519.8 452.851 519.8Z" fill="#391B0B"/>
<path id="Path_139" fillRule="evenodd" clipRule="evenodd" d="M413.58 426.051C422.469 426.918 466.253 437.346 475.268 439.198C484.284 441.05 491.905 451.071 485.031 462.674C477.31 475.699 455.482 516.178 455.482 516.178C455.347 516.211 455.216 516.269 455.079 516.269C450.639 516.269 446.681 515.661 442.87 513.005C442.87 513.005 448.661 470.56 462.144 458.732C462.144 458.732 427.327 471.251 409.914 457.591C399.642 449.533 403.784 425.095 413.58 426.051Z" fill="#33373E"/>
<path id="Combined Shape_5" fillRule="evenodd" clipRule="evenodd" d="M481.906 442.275L479.515 472.298C479.712 471.948 479.907 471.602 480.099 471.26L482.378 442.656C482.223 442.526 482.066 442.399 481.906 442.275Z" fill="white" fill-opacity="0.192499"/>
</g>
<g id="RLeg_4">
<path id="Path_140" fillRule="evenodd" clipRule="evenodd" d="M513.428 501.464C513.428 501.464 517.304 518.734 522.35 520.582C524.293 521.293 510.364 523.325 510.364 523.325L506.139 506.757L513.428 501.464Z" fill="url(#paint23_linear_620_4932)"/>
<path id="Path_141" fillRule="evenodd" clipRule="evenodd" d="M508.589 518.564L512.268 540.185L518.644 539.177L517.856 533.831C517.856 533.831 520.653 538.488 523.771 538.287C526.9 538.085 542.542 535.727 542.542 535.727C542.542 535.727 542.893 530.549 535.698 529.366C529.713 528.383 519.508 516.829 519.508 516.829L508.589 518.564Z" fill="#391B0B"/>
<path id="Path_142" fillRule="evenodd" clipRule="evenodd" d="M421.038 423.191C421.038 423.191 408.206 450.37 426.239 459.702C443.678 468.728 490.081 457.083 490.081 457.083C490.081 457.083 489.149 464.616 490.081 471.334C492.518 488.881 504.5 510.469 505.59 514.027C506.139 515.818 519.503 513.171 519.503 511.046C519.503 508.921 512.685 460.557 511.471 450.256C510.264 439.954 506.452 438.458 495.32 435.642C492.762 434.995 459.616 427.456 456.845 427.676C433.039 429.564 421.038 423.191 421.038 423.191Z" fill="#42474F"/>
<path id="Path_143" fillRule="evenodd" clipRule="evenodd" d="M456.845 427.676C459.616 427.456 492.762 434.995 495.32 435.641L497.147 436.111C506.643 438.595 510.162 440.448 511.385 449.567L511.714 452.185C512.716 459.824 515.424 477.789 517.566 492.745C515.149 487.248 513.148 481.149 511.564 474.447C507.872 458.827 508.662 446.002 507.67 443.756C506.679 441.51 458.191 434.34 449.86 432.86C446.233 432.216 444.187 430.619 443.722 428.068C447.749 428.181 452.123 428.051 456.845 427.676Z" fill="white" fill-opacity="0.192499"/>
</g>
<g id="Head_5">
<path id="Path_144" fillRule="evenodd" clipRule="evenodd" d="M450.535 318.897C454.387 319.319 454.114 326.1 449.425 326.454C448.467 332.99 445.049 336.104 440.882 336.464L441.113 346.351L422.68 346.34C422.68 346.34 427.871 339.356 427.612 329.795C427.353 320.233 427.786 311.251 427.786 311.251L451.66 311.68L450.535 318.897Z" fill="url(#paint24_linear_620_4932)"/>
<path id="Path_145" fillRule="evenodd" clipRule="evenodd" d="M451.373 319.405C446.887 317.629 443.573 325.277 440.14 330.593C436.707 335.908 427.813 335.005 426.588 330.593C421.947 320.928 417.948 307.789 423.363 306.711C424.126 292.743 460.64 296.041 451.373 319.405Z" fill="#9E5229"/>
<path id="Combined Shape_6" fillRule="evenodd" clipRule="evenodd" d="M426.35 301.176H434.262H434.374L434.449 301.26C441.478 309.115 443.051 320.684 439.767 331.119C439.513 331.447 439.236 331.747 438.941 332.021C442.62 321.491 441.211 309.638 434.15 301.676H425.762C425.949 301.503 426.145 301.336 426.35 301.176Z" fill="black" fill-opacity="0.199355"/>
<ellipse id="Oval_11" rx="4.4008" ry="4.40615" transform="matrix(-1 0 0 1 431.2 301.426)" fill="#FB9934"/>
</g>
<g id="Body_5">
<path id="Path_146" fillRule="evenodd" clipRule="evenodd" d="M455.042 348.021C459.122 354.007 465.923 374.323 466.309 378.893C466.743 384.165 461.083 392.564 460.99 400.196C460.908 407.829 465.212 426.935 463.919 429.082C462.636 431.229 420.022 443.641 417.622 442.621C415.221 441.601 406.934 430.601 408.828 426.131C410.732 421.66 418.598 411.52 417.697 405.428C416.808 399.338 411.64 376.856 409.074 369.204C406.518 361.552 407.37 353.519 412.14 350.226C414.501 348.597 420.799 343.968 432.015 343.99C443.231 344.011 454.725 347.557 455.042 348.021Z" fill="#FF9F43"/>
<path id="Path_147" fillRule="evenodd" clipRule="evenodd" d="M464.19 373.986L444.635 359.936L444.641 362.503C444.713 378.35 445.71 386.745 462.308 412.715L461.924 410.068C461.383 406.226 460.964 402.628 460.99 400.196C461.049 395.381 463.324 390.261 464.885 385.813L464.19 373.986Z" fill="black" fill-opacity="0.159856"/>
<path id="Path 68" fillRule="evenodd" clipRule="evenodd" d="M442.377 343.552C442.377 343.552 442.849 346.126 440.783 346.126C438.717 346.126 424.857 346.582 422.98 345.768C421.103 344.954 421.666 343.552 421.666 343.552H442.377Z" fill="#FFF6E1"/>
</g>
<g id="LArm_5">
<path id="Path_148" fillRule="evenodd" clipRule="evenodd" d="M511.457 378.88C511.457 378.88 522.743 371.348 524.738 369.835C526.726 368.329 529.221 356.905 527.675 355.303C526.928 354.527 521.281 359.745 520.274 360.444C519.274 361.136 514.153 364.22 514.153 364.22C514.153 364.22 515.602 355.476 514.355 354.77C513.432 354.258 511.587 356.508 511.34 358.886C511.093 361.264 508.527 364.367 508.195 367.976C508.046 369.553 507.462 371.596 507.462 371.596L476.146 385.045L479.423 399.668L511.457 378.88Z" fill="url(#paint25_linear_620_4932)"/>
<path id="Path_149" fillRule="evenodd" clipRule="evenodd" d="M444.239 364.436C448.564 373.42 455.909 386.554 459.944 394.255C464.718 403.369 470.406 407.23 481.881 400.467C483.224 399.676 486.128 397.912 486.128 397.912L479.025 382.14L475.296 383.787C475.296 383.787 464.308 363.721 459.745 354.087C453.941 341.842 435.87 347.049 444.239 364.436Z" fill="#FFB66F"/>
<path id="Path_150" fillRule="evenodd" clipRule="evenodd" d="M475.296 383.788C475.296 383.788 477.305 390.862 477.78 390.583C478.254 390.303 477.447 382.773 477.447 382.773L475.296 383.788Z" fill="black" fill-opacity="0.159856"/>
<path id="Path 75" fillRule="evenodd" clipRule="evenodd" d="M478.924 381.443L483.872 401.078L491.234 397.097L481.574 379.914L478.924 381.443Z" fill="#FFEDC2"/>
</g>
<path id="Path_151" fillRule="evenodd" clipRule="evenodd" d="M431.672 298.17C431.672 298.17 427.524 292.86 422.733 294.253C417.943 295.646 413.609 304.185 415.667 312.211C417.714 320.239 416.026 324.817 413.542 330.227C406.871 344.78 429.969 354.02 429.969 354.02C429.969 354.02 428.167 343.237 431.672 336.725C435.282 330.019 437.333 321.419 437.333 316.157C437.333 307.006 431.672 298.17 431.672 298.17Z" fill="#9E5229"/>
</g>
<g id="Chair8_2">
<path id="Path_152" fillRule="evenodd" clipRule="evenodd" d="M430.99 461.241L442.433 542.2L436.434 542.12L424.991 462.087L430.99 461.241Z" fill="#91D6FF"/>
<path id="Path_153" fillRule="evenodd" clipRule="evenodd" d="M464.289 461.241L475.732 542.2L469.733 542.12L458.29 462.087L464.289 461.241Z" fill="#91D6FF"/>
<path id="Path_154" fillRule="evenodd" clipRule="evenodd" d="M391.242 461.241L379.799 542.2L385.798 542.12L397.241 462.087L391.242 461.241Z" fill="#BFE7FF"/>
<path id="Path_155" fillRule="evenodd" clipRule="evenodd" d="M468.665 466.003C473.882 466.003 478.111 461.774 478.111 456.558C478.111 451.341 473.882 447.113 468.665 447.113H430.903C425.182 447.113 420.4 442.759 419.864 437.063L413.826 372.87C413.29 367.173 408.508 362.82 402.787 362.82H379.086C372.628 362.82 367.536 368.318 368.031 374.758L374.255 455.764C374.699 461.542 379.517 466.003 385.311 466.003H468.665Z" fill="#BFE7FF"/>
<path id="Combined Shape_7" fillRule="evenodd" clipRule="evenodd" d="M478.109 456.477C478.057 456.478 478.005 456.478 477.953 456.478H425.97C420.176 456.478 415.36 452.018 414.914 446.242L408.607 364.383C411.551 366.141 413.625 369.23 413.968 372.867L420.001 436.826C420.538 442.521 425.32 446.873 431.04 446.873H468.69C473.893 446.873 478.111 451.091 478.111 456.294C478.111 456.355 478.11 456.416 478.109 456.477Z" fill="#91D6FF"/>
</g>
</g>
</g>
<defs>
<filter id="filter0_dd_620_4932" x="70.188" y="83.0281" width="191.801" height="107.427" filterUnits="userSpaceOnUse" color-interpolation-filters="sRGB">
<feFlood flood-opacity="0" result="BackgroundImageFix"/>
<feColorMatrix in="SourceAlpha" type="matrix" values="0 0 0 0 0 0 0 0 0 0 0 0 0 0 0 0 0 0 127 0" result="hardAlpha"/>
<feOffset dx="8" dy="9"/>
<feGaussianBlur stdDeviation="14"/>
<feColorMatrix type="matrix" values="0 0 0 0 0.0755213 0 0 0 0 0.582569 0 0 0 0 0.878793 0 0 0 0.229458 0"/>
<feBlend mode="normal" in2="BackgroundImageFix" result="effect1_dropShadow_620_4932"/>
<feColorMatrix in="SourceAlpha" type="matrix" values="0 0 0 0 0 0 0 0 0 0 0 0 0 0 0 0 0 0 127 0" result="hardAlpha"/>
<feOffset dy="2"/>
<feGaussianBlur stdDeviation="7.5"/>
<feColorMatrix type="matrix" values="0 0 0 0 0.503982 0 0 0 0 0.700178 0 0 0 0 1 0 0 0 0.233829 0"/>
<feBlend mode="normal" in2="effect1_dropShadow_620_4932" result="effect2_dropShadow_620_4932"/>
<feBlend mode="normal" in="SourceGraphic" in2="effect2_dropShadow_620_4932" result="shape"/>
</filter>
<filter id="filter1_dd_620_4932" x="70.188" y="141.612" width="224.949" height="198.68" filterUnits="userSpaceOnUse" color-interpolation-filters="sRGB">
<feFlood flood-opacity="0" result="BackgroundImageFix"/>
<feColorMatrix in="SourceAlpha" type="matrix" values="0 0 0 0 0 0 0 0 0 0 0 0 0 0 0 0 0 0 127 0" result="hardAlpha"/>
<feOffset dx="8" dy="9"/>
<feGaussianBlur stdDeviation="14"/>
<feColorMatrix type="matrix" values="0 0 0 0 0.0755213 0 0 0 0 0.582569 0 0 0 0 0.878793 0 0 0 0.229458 0"/>
<feBlend mode="normal" in2="BackgroundImageFix" result="effect1_dropShadow_620_4932"/>
<feColorMatrix in="SourceAlpha" type="matrix" values="0 0 0 0 0 0 0 0 0 0 0 0 0 0 0 0 0 0 127 0" result="hardAlpha"/>
<feOffset dy="2"/>
<feGaussianBlur stdDeviation="7.5"/>
<feColorMatrix type="matrix" values="0 0 0 0 0.503982 0 0 0 0 0.700178 0 0 0 0 1 0 0 0 0.233829 0"/>
<feBlend mode="normal" in2="effect1_dropShadow_620_4932" result="effect2_dropShadow_620_4932"/>
<feBlend mode="normal" in="SourceGraphic" in2="effect2_dropShadow_620_4932" result="shape"/>
</filter>
<filter id="filter2_d_620_4932" x="95.8379" y="202.91" width="161.424" height="97.3127" filterUnits="userSpaceOnUse" color-interpolation-filters="sRGB">
<feFlood flood-opacity="0" result="BackgroundImageFix"/>
<feColorMatrix in="SourceAlpha" type="matrix" values="0 0 0 0 0 0 0 0 0 0 0 0 0 0 0 0 0 0 127 0" result="hardAlpha"/>
<feOffset dy="13"/>
<feGaussianBlur stdDeviation="7.5"/>
<feColorMatrix type="matrix" values="0 0 0 0 0 0 0 0 0 0 0 0 0 0 0 0 0 0 0.144395 0"/>
<feBlend mode="normal" in2="BackgroundImageFix" result="effect1_dropShadow_620_4932"/>
<feBlend mode="normal" in="SourceGraphic" in2="effect1_dropShadow_620_4932" result="shape"/>
</filter>
<filter id="filter3_d_620_4932" x="275.565" y="105.257" width="272.181" height="197.485" filterUnits="userSpaceOnUse" color-interpolation-filters="sRGB">
<feFlood flood-opacity="0" result="BackgroundImageFix"/>
<feColorMatrix in="SourceAlpha" type="matrix" values="0 0 0 0 0 0 0 0 0 0 0 0 0 0 0 0 0 0 127 0" result="hardAlpha"/>
<feOffset dx="6" dy="6"/>
<feGaussianBlur stdDeviation="8"/>
<feColorMatrix type="matrix" values="0 0 0 0 0.70188 0 0 0 0 0.70188 0 0 0 0 0.70188 0 0 0 0.208725 0"/>
<feBlend mode="normal" in2="BackgroundImageFix" result="effect1_dropShadow_620_4932"/>
<feBlend mode="normal" in="SourceGraphic" in2="effect1_dropShadow_620_4932" result="shape"/>
</filter>
<linearGradient id="paint0_linear_620_4932" x1="554.165" y1="311.959" x2="543.085" y2="361.436" gradientUnits="userSpaceOnUse">
<stop stop-color="#FFAFAF"/>
<stop offset="1" stop-color="#F07777"/>
</linearGradient>
<linearGradient id="paint1_linear_620_4932" x1="553.304" y1="302.565" x2="546.656" y2="335.084" gradientUnits="userSpaceOnUse">
<stop stop-color="#FDC6C6"/>
<stop offset="1" stop-color="#FAB2B2"/>
</linearGradient>
<linearGradient id="paint2_linear_620_4932" x1="506.294" y1="505.372" x2="504.701" y2="535.153" gradientUnits="userSpaceOnUse">
<stop stop-color="#FDC6C6"/>
<stop offset="1" stop-color="#FAB2B2"/>
</linearGradient>
<linearGradient id="paint3_linear_620_4932" x1="475.223" y1="543.724" x2="427.149" y2="451.447" gradientUnits="userSpaceOnUse">
<stop stop-color="#28324F"/>
<stop offset="1" stop-color="#222735"/>
</linearGradient>
<linearGradient id="paint4_linear_620_4932" x1="470.103" y1="340.935" x2="467.951" y2="369.538" gradientUnits="userSpaceOnUse">
<stop stop-color="#FDC6C6"/>
<stop offset="1" stop-color="#FAB2B2"/>
</linearGradient>
<linearGradient id="paint5_linear_620_4932" x1="549.065" y1="370.48" x2="548.434" y2="388.95" gradientUnits="userSpaceOnUse">
<stop stop-color="#FDC6C6"/>
<stop offset="1" stop-color="#FAB2B2"/>
</linearGradient>
<linearGradient id="paint6_linear_620_4932" x1="241.668" y1="202.289" x2="231.779" y2="203.214" gradientUnits="userSpaceOnUse">
<stop stop-color="#4D63A0"/>
<stop offset="1" stop-color="#222735"/>
</linearGradient>
<linearGradient id="paint7_linear_620_4932" x1="126.344" y1="401.453" x2="126.344" y2="418.018" gradientUnits="userSpaceOnUse">
<stop stop-color="#FE62BE"/>
<stop offset="1" stop-color="#FDB3A8"/>
</linearGradient>
<linearGradient id="paint8_linear_620_4932" x1="102.622" y1="388.815" x2="104.353" y2="405.289" gradientUnits="userSpaceOnUse">
<stop stop-color="#FE62BE"/>
<stop offset="1" stop-color="#FDB3A8"/>
</linearGradient>
<linearGradient id="paint9_linear_620_4932" x1="664.059" y1="503.878" x2="662.463" y2="533.728" gradientUnits="userSpaceOnUse">
<stop stop-color="#FDC6C6"/>
<stop offset="1" stop-color="#FAB2B2"/>
</linearGradient>
<linearGradient id="paint10_linear_620_4932" x1="659.427" y1="331.549" x2="655.187" y2="392.099" gradientUnits="userSpaceOnUse">
<stop stop-color="#FDC6C6"/>
<stop offset="1" stop-color="#FAB2B2"/>
</linearGradient>
<linearGradient id="paint11_linear_620_4932" x1="713.774" y1="307.548" x2="702.55" y2="357.085" gradientUnits="userSpaceOnUse">
<stop stop-color="#FFAFAF"/>
<stop offset="1" stop-color="#F07777"/>
</linearGradient>
<linearGradient id="paint12_linear_620_4932" x1="713.017" y1="298.132" x2="706.357" y2="330.729" gradientUnits="userSpaceOnUse">
<stop stop-color="#FDC6C6"/>
<stop offset="1" stop-color="#FAB2B2"/>
</linearGradient>
<linearGradient id="paint13_linear_620_4932" x1="628.782" y1="505.081" x2="627.221" y2="538.354" gradientUnits="userSpaceOnUse">
<stop stop-color="#FDC6C6"/>
<stop offset="1" stop-color="#FAB2B2"/>
</linearGradient>
<linearGradient id="paint14_linear_620_4932" x1="738.711" y1="364.421" x2="737.203" y2="403.805" gradientUnits="userSpaceOnUse">
<stop stop-color="#FDC6C6"/>
<stop offset="1" stop-color="#FAB2B2"/>
</linearGradient>
<linearGradient id="paint15_linear_620_4932" x1="585.554" y1="334.295" x2="597.478" y2="382.122" gradientUnits="userSpaceOnUse">
<stop stop-color="#9FF6EC"/>
<stop offset="1" stop-color="#7D9DFF"/>
</linearGradient>
<linearGradient id="paint16_linear_620_4932" x1="291.281" y1="390.324" x2="303.032" y2="416.444" gradientUnits="userSpaceOnUse">
<stop stop-color="#FDC6C6"/>
<stop offset="1" stop-color="#A47070"/>
</linearGradient>
<linearGradient id="paint17_linear_620_4932" x1="321.35" y1="291.859" x2="317.874" y2="338.759" gradientUnits="userSpaceOnUse">
<stop stop-color="#FDC6C6"/>
<stop offset="1" stop-color="#A47070"/>
</linearGradient>
<linearGradient id="paint18_linear_620_4932" x1="406.65" y1="343.115" x2="404.301" y2="375.755" gradientUnits="userSpaceOnUse">
<stop stop-color="#FDC6C6"/>
<stop offset="1" stop-color="#A47070"/>
</linearGradient>
<linearGradient id="paint19_linear_620_4932" x1="552.069" y1="393.227" x2="552.069" y2="396.406" gradientUnits="userSpaceOnUse">
<stop stop-color="#9FF6EC"/>
<stop offset="1" stop-color="#7D9DFF"/>
</linearGradient>
<linearGradient id="paint20_linear_620_4932" x1="558.363" y1="345.302" x2="558.363" y2="393.929" gradientUnits="userSpaceOnUse">
<stop stop-color="#9FF6EC"/>
<stop offset="1" stop-color="#7D9DFF"/>
</linearGradient>
<linearGradient id="paint21_linear_620_4932" x1="421.541" y1="368.894" x2="442.086" y2="415.838" gradientUnits="userSpaceOnUse">
<stop stop-color="#FDC6C6"/>
<stop offset="1" stop-color="#FFCCA1"/>
</linearGradient>
<linearGradient id="paint22_linear_620_4932" x1="459.697" y1="496.901" x2="457" y2="525.079" gradientUnits="userSpaceOnUse">
<stop stop-color="#FDC6C6"/>
<stop offset="1" stop-color="#FAB2B2"/>
</linearGradient>
<linearGradient id="paint23_linear_620_4932" x1="525.373" y1="496.143" x2="523.14" y2="522.125" gradientUnits="userSpaceOnUse">
<stop stop-color="#FDC6C6"/>
<stop offset="1" stop-color="#FAB2B2"/>
</linearGradient>
<linearGradient id="paint24_linear_620_4932" x1="458.486" y1="302.706" x2="455.388" y2="344.503" gradientUnits="userSpaceOnUse">
<stop stop-color="#FDC6C6"/>
<stop offset="1" stop-color="#FFCCA1"/>
</linearGradient>
<linearGradient id="paint25_linear_620_4932" x1="537.157" y1="343.749" x2="534.166" y2="397.427" gradientUnits="userSpaceOnUse">
<stop stop-color="#FDC6C6"/>
<stop offset="1" stop-color="#FFCCA1"/>
</linearGradient>
</defs>
</svg>
